<svg width="286" height="234" viewBox="0 0 286 234" fill="none" xmlns="http://www.w3.org/2000/svg">
<path d="M253.922 157.212H150.533C148.686 157.212 147.181 155.708 147.181 153.862V3.35004C147.181 1.50352 148.686 0 150.533 0H253.922C255.77 0 257.274 1.50352 257.274 3.35004V153.862C257.274 155.708 255.77 157.212 253.922 157.212ZM150.533 0.14292C148.766 0.14292 147.324 1.58355 147.324 3.35004V153.862C147.324 155.628 148.766 157.069 150.533 157.069H253.922C255.69 157.069 257.131 155.628 257.131 153.862V3.35004C257.131 1.58355 255.69 0.14292 253.922 0.14292H150.533Z" fill="#E0E0E0"/>
<path d="M134.7 157.212H31.317C29.4694 157.212 27.9651 155.708 27.9651 153.862V3.35004C27.9651 1.50352 29.4694 0 31.317 0H134.7C136.548 0 138.052 1.50352 138.052 3.35004V153.862C138.052 155.708 136.548 157.212 134.7 157.212ZM31.317 0.14292C29.5495 0.14292 28.1081 1.58355 28.1081 3.35004V153.862C28.1081 155.628 29.5495 157.069 31.317 157.069H134.7C136.468 157.069 137.909 155.628 137.909 153.862V3.35004C137.909 1.58355 136.468 0.14292 134.7 0.14292H31.317Z" fill="#E0E0E0"/>
<path d="M286 192.124H0V192.267H286V192.124Z" fill="#E0E0E0"/>
<path d="M38.7416 200.277H29.5552V200.42H38.7416V200.277Z" fill="#E0E0E0"/>
<path d="M128.059 198.727H97.4402V198.87H128.059V198.727Z" fill="#E0E0E0"/>
<path d="M60.0486 205.588H39.3136V205.73H60.0486V205.588Z" fill="#E0E0E0"/>
<path d="M241.121 198.653H216.416V198.796H241.121V198.653Z" fill="#E0E0E0"/>
<path d="M249.838 198.653H246.217V198.796H249.838V198.653Z" fill="#E0E0E0"/>
<path d="M211.697 202.215H180.872V202.358H211.697V202.215Z" fill="#E0E0E0"/>
<path d="M40.0858 173.585C40.0801 173.385 39.4108 153.627 36.1962 150.506C33.0673 147.471 29.4809 150.392 29.3265 150.518L29.0061 150.129C29.0462 150.095 33.0959 146.79 36.5451 150.14C39.9027 153.405 40.5605 172.744 40.5891 173.562L40.0858 173.579V173.585Z" fill="#E0E0E0"/>
<path d="M40.3603 177.472C40.3374 177.238 38.1638 153.753 46.7438 143.915L47.1214 144.246C38.6844 153.925 40.8351 177.192 40.858 177.427L40.3546 177.478L40.3603 177.472Z" fill="#E0E0E0"/>
<path d="M40.0457 174.985L39.5424 174.951C39.5595 174.682 41.2241 148.259 34.9263 142.474L35.2695 142.102C41.7388 148.048 40.1201 173.888 40.0457 174.985Z" fill="#E0E0E0"/>
<path d="M40.8637 174.974H40.3603C40.366 174.242 40.5662 157.12 45.434 154.331C46.515 153.708 47.5732 153.605 48.58 154.022C51.52 155.24 52.9786 160.471 53.0416 160.693L52.5554 160.825C52.5439 160.773 51.1025 155.606 48.3855 154.485C47.5275 154.131 46.618 154.228 45.6799 154.765C41.0639 157.412 40.858 174.797 40.858 174.974H40.8637Z" fill="#E0E0E0"/>
<path d="M38.9704 174.985L38.467 174.957C38.4727 174.82 39.1992 161.425 35.5841 156.703C34.709 155.56 33.7537 155.017 32.7527 155.085C30.3847 155.251 28.3941 158.715 28.3769 158.75L27.9365 158.504C28.0223 158.35 30.0758 154.765 32.7184 154.582C33.9025 154.496 35.0007 155.108 35.9845 156.394C39.714 161.259 39.0047 174.419 38.9704 174.98V174.985Z" fill="#E0E0E0"/>
<path d="M39.7655 176.803C39.6682 175.506 37.4031 144.915 41.3899 139.524L41.7961 139.821C37.9179 145.064 40.2459 176.443 40.2688 176.763L39.7655 176.803Z" fill="#E0E0E0"/>
<path d="M49.6668 157.12C49.6668 157.12 47.2758 158.001 47.9851 160.082C48.6944 162.163 56.2619 165.587 56.2619 165.587C56.2619 165.587 59.4308 162.683 56.5193 157.967C53.6078 153.244 49.7297 155.634 49.6668 157.12Z" fill="#EBEBEB"/>
<path d="M39.2678 153.159C39.2678 153.159 41.8132 153.05 41.9619 155.245C42.1049 157.441 36.4421 163.512 36.4421 163.512C36.4421 163.512 32.3981 162.054 33.2675 156.577C34.137 151.101 38.6329 151.81 39.2678 153.159Z" fill="#EBEBEB"/>
<path d="M37.1114 142.657C37.1114 142.657 38.8102 142.474 38.6729 141.439C38.5356 140.405 32.072 137.746 28.2568 142.045C28.2568 142.045 30.6992 146.236 34.2285 146.293C37.7577 146.35 37.1114 142.651 37.1114 142.651V142.657Z" fill="#EBEBEB"/>
<path d="M40.2803 140.147C40.2803 140.147 38.7416 140.891 38.3126 139.942C37.8836 138.993 41.9619 133.316 47.476 134.951C47.476 134.951 47.6247 139.799 44.6561 141.714C41.6874 143.629 40.286 140.147 40.286 140.147H40.2803Z" fill="#EBEBEB"/>
<path d="M32.2379 156.286C32.2379 156.286 33.4105 155.343 32.1464 154.88C30.8823 154.416 24.6761 154.548 24.6075 160.694C24.6075 160.694 31.8375 161.894 32.7299 159.556C33.6222 157.218 32.2379 156.292 32.2379 156.292V156.286Z" fill="#EBEBEB"/>
<path d="M46.9784 142.503C46.9784 142.503 45.8058 141.559 47.0699 141.096C48.334 140.633 54.5402 140.765 54.6031 146.91C54.6031 146.91 47.3731 148.111 46.4807 145.773C45.5884 143.434 46.9727 142.508 46.9727 142.508L46.9784 142.503Z" fill="#EBEBEB"/>
<path d="M43.1574 147.453C43.1574 147.453 43.0544 146.304 43.9811 146.756C44.9077 147.208 48.1452 150.695 44.7933 154.005C44.7933 154.005 40.2802 150.661 41.0925 148.923C41.9047 147.185 43.1574 147.453 43.1574 147.453Z" fill="#EBEBEB"/>
<path d="M31.1912 149.094C31.1912 149.094 31.889 148.174 30.8651 148.065C29.8412 147.951 25.2424 149.18 26.312 153.765C26.312 153.765 31.9119 153.342 32.1521 151.438C32.3924 149.534 31.1912 149.094 31.1912 149.094Z" fill="#EBEBEB"/>
<path d="M50.6049 192.004H31.3799L29.3093 170.967H52.6755L50.6049 192.004Z" fill="#F0F0F0"/>
<path d="M53.2132 168.646H27.7935V173.288H53.2132V168.646Z" fill="#E6E6E6"/>
<path d="M263.212 74.6786H208.174V75.6047H263.212V74.6786Z" fill="#E0E0E0"/>
<path d="M243.071 93.1839C241.762 106.195 242.74 116.171 243.232 128.085C243.752 140.719 241.653 153.147 242.002 166.508C242.791 166.01 243.5 165.764 244.215 166.508C245.256 167.234 246.16 167.468 246.967 166.508C248.025 166.508 248.746 166.004 249.335 166.508C250.124 156.132 251.182 145.252 250.124 138.164C249.975 136.717 254.328 137.106 254.42 135.071C254.878 125.707 252.927 108.528 251.308 93.2868C251.308 93.1782 251.297 93.0695 251.268 92.9609L249.449 85.2204C249.358 84.8145 249.169 84.4372 248.912 84.117L248.42 83.4996L247.63 79.5493V74.6786H247.173V79.5207L245.76 81.7731L241.361 85.6834L243.077 93.1896L243.071 93.1839Z" fill="#E0E0E0"/>
<path d="M213.934 85.2489L212.624 92.2749C212.624 92.3378 212.624 92.3949 212.624 92.4578L210.422 166.502C211.211 164.924 211.915 165.204 212.635 166.502C213.613 167.782 214.529 167.834 215.387 166.502C216.485 165.336 217.183 165.673 217.755 166.502L218.544 138.158L219.728 93.281C219.745 93.1724 219.745 93.0638 219.728 92.9552L217.909 85.2146C217.818 84.8087 217.629 84.4314 217.371 84.1113L216.88 83.4939L216.09 79.5436V74.6729H215.633V79.515L215.152 83.5911L214.454 84.38C214.197 84.6144 214.02 84.9116 213.934 85.2489Z" fill="#E0E0E0"/>
<path d="M223.212 85.2489L221.902 92.2749C221.902 92.3378 221.902 92.3949 221.902 92.4578C219.94 115.456 219.368 140.353 219.699 166.502C220.489 164.924 221.187 165.204 221.902 166.502C222.88 167.782 223.795 167.834 224.659 166.502C225.751 165.336 226.443 165.673 227.027 166.502C227.816 156.126 228.886 145.247 227.816 138.158C227.027 130.08 230.974 111.843 229 93.281C229.012 93.1724 229.012 93.0638 229 92.9552L227.176 85.2146C227.084 84.8087 226.895 84.4314 226.638 84.1113L226.146 83.4939L225.357 79.5436V74.6729H224.899V79.515L224.338 83.5911L223.641 84.38C223.418 84.6258 223.269 84.9231 223.206 85.2489H223.212Z" fill="#E0E0E0"/>
<path d="M253.121 85.2489L251.812 92.2749C251.812 92.3378 251.812 92.3949 251.812 92.4578C249.85 115.456 249.278 140.353 249.609 166.502C250.399 164.924 251.097 165.204 251.812 166.502C252.79 167.782 253.705 167.834 254.569 166.502C255.661 165.336 256.353 165.673 256.937 166.502C257.726 156.126 258.796 145.247 257.726 138.158C256.937 130.08 260.883 111.843 258.91 93.281C258.922 93.1724 258.922 93.0638 258.91 92.9552L257.085 85.2146C256.988 84.8144 256.811 84.4371 256.553 84.1113L256.062 83.4939L255.272 79.5436V74.6729H254.815V79.515L254.334 83.5911L253.636 84.38C253.39 84.6201 253.207 84.9174 253.116 85.2489H253.121Z" fill="#E0E0E0"/>
<path d="M234.371 85.249L233.027 92.2749V92.4578C229.561 104.217 231.574 116.217 232.066 128.085C232.581 140.719 230.487 153.147 230.836 166.508C231.626 166.01 232.329 165.764 233.039 166.508C234.08 167.234 234.983 167.468 235.79 166.508C236.848 166.508 237.569 166.004 238.158 166.508C238.947 156.132 240.005 145.252 238.947 138.164C238.799 136.717 243.152 137.106 243.243 135.071C243.701 125.707 241.75 108.528 240.131 93.2868C240.131 93.1782 240.12 93.0695 240.091 92.9609L238.272 85.2204C238.181 84.8145 237.992 84.4372 237.735 84.117L237.243 83.4996L236.453 79.5493V74.6786H235.996V79.5207L235.515 83.5968L234.817 84.3857C234.589 84.6258 234.434 84.9288 234.366 85.2547L234.371 85.249Z" fill="#E0E0E0"/>
<path d="M142.165 27.3892H100.209V80.7955H142.165V27.3892Z" fill="#E6E6E6"/>
<path d="M139.328 30.9965H103.04V77.1882H139.328V30.9965Z" fill="#FAFAFA"/>
<path d="M120.881 49.6275C123.045 49.6275 124.799 47.8742 124.799 45.7115C124.799 43.5487 123.045 41.7955 120.881 41.7955C118.717 41.7955 116.963 43.5487 116.963 45.7115C116.963 47.8742 118.717 49.6275 120.881 49.6275Z" fill="#E0E0E0"/>
<path d="M121.19 51.2511H129.718L125.451 58.6315L121.19 66.0176L116.923 58.6315L112.655 51.2511H121.19Z" fill="#E0E0E0"/>
<path d="M194.354 10.982H153.245V63.3078H194.354V10.982Z" fill="#E6E6E6"/>
<path d="M191.58 14.515H156.019V59.7748H191.58V14.515Z" fill="#FAFAFA"/>
<path d="M177.337 28.9327C177.337 31.0536 175.621 32.7687 173.499 32.7687C171.377 32.7687 169.661 31.0536 169.661 28.9327C169.661 26.8118 171.377 25.0967 173.499 25.0967C175.621 25.0967 177.337 26.8118 177.337 28.9327Z" fill="#E0E0E0"/>
<path d="M173.796 48.8329H165.44L169.621 41.5955L173.796 34.3637L177.978 41.5955L182.159 48.8329H173.796Z" fill="#E0E0E0"/>
<path d="M75.3953 69.1675C76.3462 69.1675 77.117 68.3971 77.117 67.4468C77.117 66.4964 76.3462 65.726 75.3953 65.726C74.4444 65.726 73.6736 66.4964 73.6736 67.4468C73.6736 68.3971 74.4444 69.1675 75.3953 69.1675Z" fill="#E0E0E0"/>
<path d="M34.5831 69.1675C35.534 69.1675 36.3048 68.3971 36.3048 67.4468C36.3048 66.4964 35.534 65.726 34.5831 65.726C33.6322 65.726 32.8614 66.4964 32.8614 67.4468C32.8614 68.3971 33.6322 69.1675 34.5831 69.1675Z" fill="#E0E0E0"/>
<path d="M268.125 230.496C268.125 232.434 212.103 234 143 234C73.8967 234 17.875 232.428 17.875 230.496C17.875 228.563 73.8967 226.991 143 226.991C212.103 226.991 268.125 228.563 268.125 230.496Z" fill="#F5F5F5"/>
<path d="M269.646 52.5031H201.744V58.7116H269.646V52.5031Z" fill="#263238"/>
<path d="M212.435 42.0814L212.012 42.0071C212.304 40.3721 212.607 38.6856 213.253 37.1078C213.756 35.8672 214.712 34.1636 216.376 33.1174C218.842 31.5682 222.354 31.9398 224.727 33.9978C226.85 35.8386 228.011 38.92 227.759 42.0414L227.33 42.0071C227.57 39.0172 226.466 36.0673 224.447 34.318C222.251 32.4086 218.876 32.0484 216.605 33.4776C215.038 34.4666 214.134 36.0845 213.653 37.2678C213.03 38.8057 212.727 40.4692 212.441 42.0814H212.435Z" fill="#263238"/>
<path d="M229.721 45.3628C229.721 49.3074 225.437 52.5031 220.157 52.5031C214.878 52.5031 210.593 49.3074 210.593 45.3628C210.593 43.6192 211.057 41.6641 212.452 40.4235C214.208 38.8628 217.217 38.2225 220.157 38.2225C222.708 38.2225 225.688 38.7313 227.404 39.949C229.235 41.2524 229.721 43.3219 229.721 45.3628Z" fill="#F83758"/>
<path opacity="0.3" d="M229.721 45.3628C229.721 49.3074 225.437 52.5031 220.157 52.5031C214.878 52.5031 210.593 49.3074 210.593 45.3628C210.593 43.6192 211.057 41.6641 212.452 40.4235C214.208 38.8628 217.217 38.2225 220.157 38.2225C222.708 38.2225 225.688 38.7313 227.404 39.949C229.235 41.2524 229.721 43.3219 229.721 45.3628Z" fill="black"/>
<path opacity="0.3" d="M211.234 42.796C211.234 42.796 214.025 46.1517 220.163 46.2089C226.295 46.2661 229.092 42.796 229.092 42.796C229.092 42.796 226.752 47.4323 219.659 47.4323C214.471 47.4323 211.234 42.796 211.234 42.796Z" fill="black"/>
<path d="M219.848 45.117C220.275 45.117 220.62 44.7715 220.62 44.3453C220.62 43.919 220.275 43.5735 219.848 43.5735C219.422 43.5735 219.076 43.919 219.076 44.3453C219.076 44.7715 219.422 45.117 219.848 45.117Z" fill="#263238"/>
<path d="M262.577 38.8457H241.55V52.2344H262.577V38.8457Z" fill="#F83758"/>
<path d="M263.904 37.3307H240.223V42.9332H263.904V37.3307Z" fill="#F83758"/>
<path opacity="0.3" d="M262.577 42.9847H241.55V44.3681H262.577V42.9847Z" fill="black"/>
<path opacity="0.3" d="M255.175 39.103H248.957C248.452 39.103 248.042 39.5125 248.042 40.0177V40.2177C248.042 40.7229 248.452 41.1324 248.957 41.1324H255.175C255.68 41.1324 256.09 40.7229 256.09 40.2177V40.0177C256.09 39.5125 255.68 39.103 255.175 39.103Z" fill="black"/>
<path d="M265.385 36.1188C264.544 35.6157 263.589 35.2384 262.571 34.9926C262.251 35.0326 259.036 35.4099 257.566 33.7406C256.021 31.9798 253.836 25.9257 250.301 26.2802C250.324 26.2401 250.353 26.2059 250.376 26.1658C250.353 26.1944 250.324 26.2173 250.301 26.2401C250.193 26.3659 250.113 26.5031 250.05 26.646C249.867 27.3778 249.741 28.1153 249.678 28.8527C249.512 31.3738 249.627 34.7467 249.85 37.2621H250.599L250.696 31.6654C250.696 30.0533 252.446 31.9284 252.944 33.6491C253.442 35.3699 254.477 37.2564 259.145 37.2621C264.516 37.285 266.775 37.1078 265.385 36.1188Z" fill="#263238"/>
<path opacity="0.1" d="M265.385 36.1188C264.544 35.6157 263.589 35.2384 262.571 34.9926C262.251 35.0326 259.036 35.4099 257.566 33.7406C256.021 31.9798 253.836 25.9257 250.301 26.2802C250.324 26.2401 250.353 26.2059 250.376 26.1658C250.353 26.1944 250.324 26.2173 250.301 26.2401C250.193 26.3659 250.113 26.5031 250.05 26.646C249.867 27.3778 249.741 28.1153 249.678 28.8527C249.512 31.3738 249.627 34.7467 249.85 37.2621H250.599L250.696 31.6654C250.696 30.0533 252.446 31.9284 252.944 33.6491C253.442 35.3699 254.477 37.2564 259.145 37.2621C264.516 37.285 266.775 37.1078 265.385 36.1188Z" fill="black"/>
<path d="M256.525 36.1188C255.684 35.6157 254.729 35.2384 253.711 34.9926C253.39 35.0326 250.176 35.4099 248.706 33.7406C247.161 31.9798 244.976 25.9257 241.441 26.2802C241.464 26.2401 241.493 26.2059 241.516 26.1658C241.493 26.1944 241.464 26.2173 241.441 26.2401C241.333 26.3659 241.252 26.5031 241.19 26.646C241.006 27.3778 240.881 28.1153 240.818 28.8527C240.652 31.3738 240.766 34.7467 240.989 37.2621H241.739L241.836 31.6654C241.836 30.0533 243.586 31.9284 244.084 33.6491C244.581 35.3699 245.617 37.2564 250.284 37.2621C255.655 37.285 257.915 37.1078 256.525 36.1188Z" fill="#263238"/>
<path d="M63.4118 36.2445L62.9828 36.2217C63 35.9129 63.0115 35.5871 63.0286 35.2498C63.1201 33.0431 63.2402 30.2933 64.4243 28.4468C65.6541 26.5317 67.7362 25.394 70.619 25.0567C73.2216 24.7538 75.8528 25.8571 77.3286 27.8637C78.9416 30.0532 79.0618 32.9516 79.0503 35.7357H78.6213C78.6328 33.026 78.5184 30.2019 76.9854 28.121C75.5954 26.2344 73.1187 25.1997 70.6705 25.4855C67.9249 25.8056 65.9458 26.8804 64.7846 28.6812C63.6578 30.4305 63.5491 33.1174 63.4576 35.2727C63.4462 35.61 63.429 35.9415 63.4118 36.2502V36.2445Z" fill="#263238"/>
<path d="M82.0877 48.9644H59.9456L62.2278 34.5809H80.2916L82.0877 48.9644Z" fill="#F83758"/>
<path opacity="0.3" d="M62.2278 34.5809C62.2278 34.5809 64.9506 41.7441 71.0195 41.7727C77.0884 41.7955 80.2916 34.5809 80.2916 34.5809C80.2916 34.5809 77.3172 43.1618 71.0195 43.0361C64.7218 42.9046 62.2278 34.5809 62.2278 34.5809Z" fill="black"/>
<path d="M72.9013 39.1658H69.2977V39.8633H72.9013V39.1658Z" fill="#263238"/>
<path d="M50.4332 45.9174H27.7362C27.1613 45.9174 26.6952 46.3832 26.6952 46.9578V47.8153C26.6952 48.39 27.1613 48.8558 27.7362 48.8558H50.4332C51.0081 48.8558 51.4742 48.39 51.4742 47.8153V46.9578C51.4742 46.3832 51.0081 45.9174 50.4332 45.9174Z" fill="#F83758"/>
<path d="M25.923 44.0251V44.8769C25.9344 45.4658 26.4206 45.9288 27.0098 45.9174H50.5419C51.131 45.9288 51.6172 45.4601 51.6287 44.8769V44.0251C51.6172 43.4363 51.131 42.9675 50.5419 42.979H26.9926C26.4092 42.979 25.9344 43.4477 25.923 44.0251Z" fill="#F83758"/>
<path opacity="0.3" d="M25.923 44.0251V44.8769C25.9344 45.4658 26.4206 45.9288 27.0098 45.9174H50.5419C51.131 45.9288 51.6172 45.4601 51.6287 44.8769V44.0251C51.6172 43.4363 51.131 42.9675 50.5419 42.979H26.9926C26.4092 42.979 25.9344 43.4477 25.923 44.0251Z" fill="black"/>
<path d="M25.9974 41.081V41.9328C26.0145 42.5273 26.5065 42.9904 27.1013 42.9732H51.0624C51.6573 42.9904 52.1492 42.5216 52.1664 41.9328V41.081C52.1549 40.4864 51.663 40.0176 51.0681 40.0291H27.1013C26.5065 40.0119 26.0145 40.4807 25.9974 41.0695V41.081Z" fill="#F83758"/>
<path d="M26.6151 38.1368V38.9886C26.6151 39.566 27.0842 40.0348 27.6676 40.0348H50.4275C51.0052 40.0348 51.48 39.566 51.48 38.9886V38.1368C51.48 37.5594 51.0052 37.0964 50.4275 37.0964H27.6333C27.067 37.1135 26.6208 37.5766 26.6151 38.1368Z" fill="#F83758"/>
<path opacity="0.3" d="M26.6151 38.1368V38.9886C26.6151 39.566 27.0842 40.0348 27.6676 40.0348H50.4275C51.0052 40.0348 51.48 39.566 51.48 38.9886V38.1368C51.48 37.5594 51.0052 37.0964 50.4275 37.0964H27.6333C27.067 37.1135 26.6208 37.5766 26.6151 38.1368Z" fill="black"/>
<path d="M27.9364 35.1984V36.0502C27.9136 36.5933 28.3311 37.0621 28.8745 37.0906H49.2091C49.7582 37.0621 50.1758 36.5933 50.1472 36.0502V35.1984C50.1758 34.6496 49.7582 34.1808 49.2091 34.1465H28.9031C28.354 34.1636 27.9193 34.621 27.9364 35.1755V35.1984Z" fill="#F83758"/>
<path d="M89.129 48.7471H21.2269V54.9556H89.129V48.7471Z" fill="#263238"/>
<path d="M72.1463 217.444H50.09V229.478H72.1463V217.444Z" fill="#263238"/>
<path opacity="0.7" d="M72.1463 217.444H50.09V229.478H72.1463V217.444Z" fill="white"/>
<path d="M73.542 216.089H48.7001V221.126H73.542V216.089Z" fill="#263238"/>
<path opacity="0.7" d="M73.542 216.089H48.7001V221.126H73.542V216.089Z" fill="white"/>
<path opacity="0.3" d="M72.1463 221.166H50.09V222.406H72.1463V221.166Z" fill="black"/>
<path opacity="0.3" d="M63.2746 219.502H59.4765C58.9732 219.502 58.5613 219.096 58.5613 218.587C58.5613 218.084 58.9675 217.673 59.4765 217.673H63.2746C63.778 217.673 64.1898 218.079 64.1898 218.587C64.1898 219.091 63.7837 219.502 63.2746 219.502Z" fill="black"/>
<path d="M50.6735 216.089H21.1411V229.478H50.6735V216.089Z" fill="#F83758"/>
<path d="M52.5439 214.58H19.2764V220.182H52.5439V214.58Z" fill="#F83758"/>
<path opacity="0.3" d="M50.6735 220.228H21.1411V221.612H50.6735V220.228Z" fill="black"/>
<path opacity="0.3" d="M39.1076 216.352H33.4048C32.8993 216.352 32.4896 216.762 32.4896 217.267V217.467C32.4896 217.972 32.8993 218.382 33.4048 218.382H39.1076C39.6131 218.382 40.0228 217.972 40.0228 217.467V217.267C40.0228 216.762 39.6131 216.352 39.1076 216.352Z" fill="black"/>
<path d="M50.6735 200.254H21.1411V214.58H50.6735V200.254Z" fill="#263238"/>
<path d="M52.5439 198.636H19.2764V204.633H52.5439V198.636Z" fill="#263238"/>
<path opacity="0.3" d="M50.6735 204.684H21.1411V206.165H50.6735V204.684Z" fill="black"/>
<path opacity="0.3" d="M39.1076 200.534H33.4048C32.8993 200.534 32.4896 200.943 32.4896 201.449V201.792C32.4896 202.297 32.8993 202.706 33.4048 202.706H39.1076C39.6131 202.706 40.0228 202.297 40.0228 201.792V201.449C40.0228 200.943 39.6131 200.534 39.1076 200.534Z" fill="black"/>
<path d="M242.265 135.877H238.799V223.144H242.265V135.877Z" fill="#263238"/>
<path opacity="0.3" d="M242.265 135.877H238.799V223.144H242.265V135.877Z" fill="white"/>
<path d="M225.963 229.478L238.799 220.92L240.526 222.292L229.275 229.478H225.963Z" fill="#263238"/>
<path opacity="0.3" d="M225.963 229.478L238.799 220.92L240.526 222.292L229.275 229.478H225.963Z" fill="white"/>
<path d="M255.095 229.478L242.259 220.92L240.526 222.292L251.783 229.478H255.095Z" fill="#263238"/>
<path opacity="0.3" d="M255.095 229.478L242.259 220.92L240.526 222.292L251.783 229.478H255.095Z" fill="white"/>
<path d="M222.645 102.839C222.302 100.713 223.623 98.6833 225.711 98.1517C229.355 97.2313 235.338 95.5963 236.064 94.6301C237.117 93.2295 237.82 86.5637 237.82 86.5637L242.03 87.2669V146.356H225.362C225.362 146.356 225.54 142.497 226.941 137.586C228.342 132.675 230.802 127.593 230.802 127.593C230.802 127.593 223.955 110.872 222.651 102.839H222.645Z" fill="#F83758"/>
<path d="M259.059 102.839C259.402 100.713 258.081 98.6833 255.993 98.1517C252.349 97.2313 246.366 95.5963 245.64 94.6301C244.587 93.2295 243.884 86.5637 243.884 86.5637L239.674 87.2669V146.356H256.342C256.342 146.356 256.164 142.497 254.763 137.586C253.362 132.675 250.902 127.593 250.902 127.593C250.902 127.593 257.749 110.872 259.053 102.839H259.059Z" fill="#F83758"/>
<path opacity="0.2" d="M241.149 90.7198C243.601 90.7198 245.588 86.8422 245.588 82.0589C245.588 77.2756 243.601 73.3979 241.149 73.3979C238.698 73.3979 236.711 77.2756 236.711 82.0589C236.711 86.8422 238.698 90.7198 241.149 90.7198Z" fill="black"/>
<path d="M241.149 89.0219C245.705 89.0219 249.398 84.4686 249.398 78.8518C249.398 73.2349 245.705 68.6816 241.149 68.6816C236.594 68.6816 232.901 73.2349 232.901 78.8518C232.901 84.4686 236.594 89.0219 241.149 89.0219Z" fill="#F83758"/>
<path d="M225.151 112.249C225.151 112.249 231.62 104.074 241.149 112.249C241.149 112.249 250.765 103.343 256.25 113.181L251.691 127.885C251.691 127.885 259.585 147.225 259.116 162.328L261.049 206.222H254.454L252.155 171.024L250.616 206.222H223.984C223.984 206.222 223.48 150.889 226.438 139.513C228.737 130.669 230.133 127.885 230.133 127.885L225.151 112.249Z" fill="#263238"/>
<path d="M50.868 81.4359H21.7246C21.3299 81.4359 20.9867 81.1786 20.878 80.8013C20.7693 80.4183 20.9238 80.0238 21.2612 79.8123L35.6756 70.8541L51.297 79.858C51.6344 80.0524 51.7946 80.4354 51.6916 80.807C51.5887 81.1843 51.2626 81.4359 50.8737 81.4359H50.868ZM21.5587 80.2982C21.3756 80.4126 21.41 80.5898 21.4271 80.6412C21.4443 80.6927 21.5072 80.8642 21.7246 80.8642H50.868C51.0624 80.8642 51.1196 80.7098 51.1311 80.6584C51.1425 80.6069 51.1711 80.4469 51.0052 80.3497L35.6814 71.5172L21.5587 80.2925V80.2982Z" fill="#263238"/>
<path d="M35.7843 71.4772C35.7557 71.4772 35.7271 71.4772 35.6985 71.4658C35.5498 71.4143 35.464 71.2542 35.5155 71.1056C35.8472 70.0937 36.0074 69.0418 35.996 67.9728C35.996 67.5154 35.9445 66.938 35.647 66.5322C35.4468 66.252 35.1094 66.0691 34.7204 66.0291C34.3143 65.9833 33.9196 66.0977 33.645 66.3378C33.0845 66.8294 33.0158 67.8184 33.502 68.413C33.5993 68.533 33.5821 68.716 33.462 68.8132C33.3419 68.9161 33.1588 68.8932 33.0616 68.7731C32.3809 67.9442 32.4782 66.6008 33.2675 65.909C33.6622 65.5603 34.217 65.4002 34.7833 65.4574C35.3324 65.5203 35.8129 65.789 36.1104 66.1949C36.4993 66.7322 36.5622 67.424 36.568 67.9671C36.5794 69.0933 36.4135 70.2081 36.0589 71.2828C36.0188 71.4029 35.9044 71.4829 35.7843 71.4829V71.4772Z" fill="#263238"/>
<path d="M27.9079 75.0959L35.9731 86.2779L42.3566 74.5871L51.3771 79.7837L55.0379 86.1579L49.8041 88.8677L48.1224 99.2322L49.8041 114.325C41.2126 116.691 32.7299 116.754 24.3672 114.325L25.7572 99.4094L24.3672 90.5827L17.5261 88.033L19.8827 80.8184L27.9022 75.0902L27.9079 75.0959Z" fill="#F83758"/>
<path opacity="0.3" d="M24.3672 90.5884L22.6627 84.6772V89.9538L24.3672 90.5884Z" fill="black"/>
<path opacity="0.3" d="M49.804 88.8677L50.4733 83.0366L51.3942 88.0445L49.804 88.8677Z" fill="black"/>
<path opacity="0.3" d="M31.6316 106.493C31.6316 106.493 41.0925 101.439 43.4549 96.4081C43.4549 96.4081 41.2126 106.55 31.6316 106.493Z" fill="black"/>
<path d="M91.6802 81.4359H62.5368C62.1421 81.4359 61.7989 81.1786 61.6902 80.8013C61.5816 80.4183 61.736 80.0238 62.0735 79.8123L76.4879 70.8541L92.1092 79.858C92.4467 80.0524 92.6068 80.4354 92.5039 80.8127C92.4009 81.19 92.0749 81.4416 91.6859 81.4416L91.6802 81.4359ZM62.3709 80.2982C62.1879 80.4126 62.2222 80.5898 62.2394 80.6412C62.2565 80.6927 62.3194 80.8642 62.5368 80.8642H91.6802C91.8747 80.8642 91.9319 80.7098 91.9433 80.6584C91.9548 80.6069 91.9834 80.4469 91.8175 80.3497L76.4936 71.5172L62.3709 80.2925V80.2982Z" fill="#263238"/>
<path d="M76.5966 71.4772C76.568 71.4772 76.5394 71.4772 76.5108 71.4658C76.362 71.4143 76.2762 71.2542 76.3277 71.1056C76.6595 70.0937 76.8196 69.0361 76.8082 67.9728C76.8082 67.5154 76.7567 66.938 76.4593 66.5322C76.2591 66.252 75.9216 66.0691 75.5326 66.0291C75.1265 65.9833 74.7318 66.0977 74.4573 66.3378C73.8967 66.8294 73.8281 67.8184 74.3143 68.413C74.4115 68.533 74.3944 68.716 74.2742 68.8132C74.1541 68.9161 73.9711 68.8932 73.8738 68.7731C73.1932 67.9442 73.2904 66.6008 74.0798 65.909C74.4744 65.5603 75.0293 65.4002 75.5956 65.4574C76.1447 65.5203 76.6252 65.789 76.9226 66.1949C77.3116 66.7322 77.3745 67.424 77.3802 67.9671C77.3916 69.0933 77.2258 70.2081 76.8711 71.2828C76.8311 71.4029 76.7224 71.4829 76.5966 71.4829V71.4772Z" fill="#263238"/>
<path d="M68.8002 75.5361L67.0728 76.5594L68.3312 86.884L69.1091 86.6725L68.8002 75.5361Z" fill="#263238"/>
<path d="M84.7475 75.5762L86.0689 76.3308L83.4949 86.4838L82.8828 86.2609L84.6217 75.782L84.7475 75.5762Z" fill="#263238"/>
<path d="M51.3942 157.246C54.9864 162.174 58.6129 163.849 62.0163 164.175C65.8601 164.049 68.8402 161.328 71.8547 157.246C72.5926 156 73.7937 155.697 74.1026 157.246L74.7662 159.121C74.8977 159.476 75.2924 159.659 75.6527 159.522C75.8587 159.447 76.0131 159.276 76.076 159.064L76.5451 157.263C76.6881 156.537 77.3916 156.069 78.1123 156.212C78.6443 156.314 79.0619 156.732 79.1648 157.263L79.7254 160.213C80.6006 162.592 83.0601 166.056 88.4713 165.884C92.2179 165.93 94.9692 161.465 97.7491 157.269L84.4501 103.903L68.1138 103.371L51.3942 157.252V157.246Z" fill="#F83758"/>
<path opacity="0.2" d="M78.61 156.463C78.2611 156.172 77.792 156.086 77.363 156.223V125.873L78.61 156.463Z" fill="black"/>
<path d="M62.8056 87.8444L67.5875 85.5577C68.7601 84.9917 70.1386 85.0603 71.2483 85.7349L76.3162 88.7819L80.4918 86.1808C82.0019 85.2432 83.8952 85.1918 85.4568 86.0379L90.1758 88.599L85.1422 106.275L82.3394 107.453C81.613 107.756 80.7893 107.699 80.1086 107.299L77.0541 105.246C76.402 104.812 75.5498 104.829 74.9148 105.286L72.9071 106.738C72.1063 107.316 71.0882 107.504 70.1329 107.264L67.0956 106.481L62.8113 87.8501L62.8056 87.8444Z" fill="#F83758"/>
<path d="M67.0899 106.475L66.2605 102.874C72.9872 104.074 79.5652 104.292 85.9602 103.365L85.2967 107.281C85.2967 107.281 76.2877 109.305 67.5647 106.493" fill="#263238"/>
<g opacity="0.2">
<path d="M68.3026 97.8716C69.5152 98.5577 70.9566 98.8264 72.3409 98.632C73.7194 98.4376 75.0293 97.7802 76.0131 96.7855C75.8301 98.329 74.3715 99.5238 72.8271 99.7125C71.2827 99.9011 69.7325 99.238 68.5371 98.2375" fill="black"/>
</g>
<path d="M161.052 89.9539C159.245 89.7938 155.601 92.9609 154.629 93.9499C153.656 94.9389 145.963 98.2775 145.963 98.2775L137.417 88.2217L134.025 90.0568C134.025 90.0568 141.541 105.303 142.314 106.167C143.086 107.03 144.35 107.139 146.655 106.813C148.96 106.487 161.945 97.7516 161.624 97.643C161.298 97.5343 161.064 89.9539 161.064 89.9539H161.052Z" fill="#B97964"/>
<path d="M137.469 88.7419C137.469 88.7419 138.487 87.4613 138.315 86.1236C138.144 84.7801 138.367 83.6654 138.172 82.6764C137.978 81.6874 137.303 82.8707 137.074 83.5682C136.845 84.2713 136.576 85.0603 136.073 84.803C135.575 84.5457 132.961 80.4811 132.229 80.201C131.497 79.9209 131.714 80.7098 131.714 80.7098C131.714 80.7098 131.051 79.7379 130.599 79.898C130.479 79.938 130.273 80.2238 130.502 80.7155C131.022 81.8131 132.241 84.0712 132.241 84.0712C132.172 83.9398 130.473 81.2643 130.17 80.8984C129.77 80.4182 129.335 80.3954 129.066 80.6355C128.683 80.9785 130.673 84.3628 130.656 84.5686C130.656 84.5686 129.575 82.5792 128.906 82.5792C128.237 82.5792 128.854 83.8655 129.609 84.9002C130.302 85.8492 131.411 87.8901 132.212 88.7819C133.196 89.8852 134.105 90.4055 135.427 89.9939C136.748 89.5822 137.469 88.7419 137.469 88.7419Z" fill="#B97964"/>
<path opacity="0.3" d="M131.732 85.8435C131.686 85.8435 131.646 85.8206 131.617 85.7863C131.571 85.7234 131.583 85.6319 131.646 85.5862C132.527 84.9459 133.47 84.3857 134.46 83.9341C134.529 83.8997 134.614 83.934 134.649 84.0026C134.683 84.077 134.649 84.157 134.58 84.1913C133.608 84.6372 132.675 85.186 131.812 85.8149C131.789 85.832 131.754 85.8435 131.726 85.8435H131.732Z" fill="black"/>
<path opacity="0.3" d="M134.792 87.993C134.792 87.993 134.775 87.993 134.769 87.993C134.689 87.9815 134.637 87.9072 134.649 87.8272C134.798 86.9125 135.358 86.0664 136.142 85.5633C136.21 85.5233 136.296 85.5404 136.342 85.609C136.382 85.6777 136.365 85.7634 136.296 85.8091C135.581 86.2665 135.072 87.0382 134.935 87.8786C134.923 87.9472 134.86 87.9987 134.792 87.9987V87.993Z" fill="black"/>
<path d="M163.821 67.8241L168.912 64.9085C166.092 62.416 162.768 63.0106 160.612 64.9829C159.353 66.1376 159.622 67.1953 158.741 67.8355C157.723 68.573 156.625 68.9732 155.807 69.9965C154.6 71.5114 155.338 74.1012 154.474 75.9134C153.948 77.0167 152.85 77.7885 152.747 79.0462C152.65 80.2467 153.542 81.3386 153.428 82.5391C153.365 83.1909 153.004 83.8654 153.245 84.46C153.445 84.9631 153.977 85.1346 154.44 85.2318C157.763 85.9063 161.241 85.5462 164.41 84.1913C164.713 84.0598 165.045 83.894 165.182 83.5453C165.279 83.2995 165.256 83.0079 165.228 82.7392C164.753 77.7713 164.284 72.8034 163.809 67.8298L163.821 67.8241Z" fill="#263238"/>
<path d="M170.119 68.0299L167.487 65.3087C169.095 64.2111 171.285 64.4398 172.704 65.8518C173.493 66.635 174.048 67.7383 174.929 68.3729C175.947 69.1104 177.314 69.1733 178.127 70.2023C179.333 71.7172 178.596 74.307 179.459 76.1192C179.985 77.2225 181.084 77.9943 181.187 79.252C181.284 80.4525 180.392 81.5444 180.506 82.7449C180.569 83.3967 180.929 84.0712 180.689 84.6658C180.489 85.1689 179.957 85.3404 179.494 85.4376C176.17 86.1121 172.693 85.752 169.524 84.3971C169.22 84.2656 168.889 84.0998 168.751 83.7511C168.654 83.5053 168.677 83.2137 168.706 82.945C169.18 77.9771 169.649 73.0035 170.124 68.0356L170.119 68.0299Z" fill="#263238"/>
<path d="M173.173 89.405C173.173 89.405 171.171 90.3883 168.706 92.5149C168.191 92.9551 167.625 93.3382 167.024 93.6583C165.405 94.5158 163.935 95.0075 163.535 94.23C163.443 94.0585 163.38 93.8756 163.329 93.6812C162.991 92.3778 163.129 90.5427 164.187 89.7023C165.377 88.7533 165.949 87.9472 165.737 86.6667C165.623 85.9406 165.359 85.1917 165.056 84.46L166.429 83.6368L171.325 78.6974C170.765 81.7274 170.599 87.6157 173.179 89.4107L173.173 89.405Z" fill="#B97964"/>
<path opacity="0.2" d="M165.771 86.9411C167.115 86.1407 168.597 84.7572 168.42 83.1737C168.34 82.5048 168.197 81.876 168.036 81.4701L165.302 85.0888C165.525 85.6719 165.611 86.0607 165.771 86.9411Z" fill="black"/>
<path d="M172.263 73.1235C171.8 78.1543 171.714 80.281 169.117 82.9221C165.211 86.8896 159.205 85.5519 158.169 80.5725C157.237 76.0848 158.147 68.6187 163.089 66.5035C167.956 64.4226 172.727 68.0985 172.263 73.1293V73.1235Z" fill="#B97964"/>
<path d="M165.748 74.7642C165.726 75.2959 165.434 75.7304 165.102 75.7418C164.77 75.7475 164.524 75.3245 164.547 74.7928C164.57 74.2611 164.862 73.8267 165.194 73.8152C165.525 73.8095 165.771 74.2326 165.748 74.7642Z" fill="#263238"/>
<path d="M160.789 74.7471C160.766 75.2616 160.475 75.6847 160.149 75.6904C159.817 75.6961 159.571 75.2845 159.599 74.77C159.622 74.2555 159.914 73.8324 160.24 73.8267C160.572 73.821 160.818 74.2326 160.789 74.7471Z" fill="#263238"/>
<path d="M166.801 72.912C166.738 72.9177 166.669 72.9006 166.624 72.8549C165.851 72.1403 164.976 72.3918 164.965 72.3918C164.833 72.4318 164.707 72.3575 164.673 72.226C164.644 72.0945 164.725 71.9573 164.856 71.9173C164.902 71.9059 165.994 71.5857 166.961 72.4775C167.058 72.569 167.058 72.7234 166.961 72.8263C166.915 72.8777 166.858 72.9063 166.795 72.912H166.801Z" fill="#263238"/>
<path d="M159.119 72.226C159.067 72.2088 159.027 72.1688 159.005 72.1174C158.959 72.003 159.016 71.8601 159.13 71.7972C160.28 71.1512 161.132 71.6429 161.167 71.6657C161.27 71.7286 161.293 71.8658 161.218 71.9859C161.15 72.1002 161.007 72.146 160.909 72.0888C160.875 72.0716 160.211 71.7 159.296 72.2146C159.239 72.2489 159.176 72.2546 159.119 72.2374V72.226Z" fill="#263238"/>
<path d="M162.139 74.5013C162.139 74.5013 161.35 76.3821 160.463 77.554C160.309 77.7599 160.406 78.0571 160.646 78.1486C161.27 78.3773 161.996 78.1715 161.996 78.1715L162.139 74.5013Z" fill="#A24E3F"/>
<path d="M165.382 73.8325L164.227 73.558C164.227 73.558 164.856 74.4213 165.382 73.8325Z" fill="#263238"/>
<path d="M160.354 73.8381L159.199 73.5637C159.199 73.5637 159.828 74.427 160.354 73.8381Z" fill="#263238"/>
<path d="M170.519 74.8615C170.519 74.8615 167.922 70.9569 168.059 67.7955C168.059 67.7955 163.094 66.5035 159.13 71.7915C158.501 72.6319 158.124 74.0382 157.557 75.2502C157.557 75.2502 157.769 65.2572 166.263 64.474C174.746 63.6908 179.568 76.9538 171.114 80.0409C171.114 80.0409 172.126 77.3025 170.519 74.8615Z" fill="#263238"/>
<path d="M173.785 77.2225C173.19 78.2515 172.223 78.9032 171.343 79.1205C170.01 79.4521 169.323 77.314 169.775 75.982C170.187 74.7814 171.491 73.9868 172.79 74.2498C174.065 74.507 174.466 76.0448 173.785 77.2225Z" fill="#B97964"/>
<path opacity="0.2" d="M170.976 77.0967H170.965C170.885 77.0967 170.828 77.0224 170.833 76.9423C170.868 76.4278 171.108 75.9362 171.497 75.5932C171.886 75.2502 172.406 75.0787 172.921 75.1073C173.001 75.1073 173.059 75.1816 173.053 75.2616C173.053 75.3417 172.984 75.4045 172.904 75.3931C172.469 75.3645 172.017 75.5189 171.686 75.8104C171.354 76.102 171.148 76.525 171.114 76.9652C171.114 77.0395 171.045 77.0967 170.971 77.0967H170.976Z" fill="black"/>
<path d="M163.603 79.8351C163.46 79.8351 163.306 79.8179 163.14 79.7836C163.066 79.7665 163.014 79.6922 163.031 79.6179C163.049 79.5435 163.117 79.4864 163.203 79.5092C164.547 79.7836 164.999 78.6289 165.022 78.5831C165.051 78.5088 165.131 78.4745 165.205 78.4974C165.279 78.5259 165.319 78.606 165.291 78.6803C165.291 78.6917 164.85 79.8408 163.609 79.8408L163.603 79.8351Z" fill="#263238"/>
<path d="M173.476 79.2863C173.476 79.8523 173.019 80.3096 172.452 80.3096C171.886 80.3096 171.428 79.8523 171.428 79.2863C171.428 78.7203 171.886 78.263 172.452 78.263C173.019 78.263 173.476 78.7203 173.476 79.2863Z" fill="#F83758"/>
<path d="M207.173 164.135C203.089 163.215 198.839 163.672 194.703 164.312C186.855 165.53 179.03 167.439 171.857 170.967C163.163 172.167 151.065 172.196 148.8 175.614C171.245 185.184 197.786 174.957 207.956 168.491C208.791 167.96 209.712 167.205 209.661 166.182C209.598 164.998 208.288 164.381 207.178 164.129L207.173 164.135Z" fill="#F83758"/>
<g opacity="0.2">
<path d="M207.173 164.135C203.089 163.215 198.839 163.672 194.703 164.312C186.855 165.53 179.03 167.439 171.857 170.967C163.163 172.167 151.065 172.196 148.8 175.614C171.245 185.184 197.786 174.957 207.956 168.491C208.791 167.96 209.712 167.205 209.661 166.182C209.598 164.998 208.288 164.381 207.178 164.129L207.173 164.135Z" fill="black"/>
</g>
<path d="M182.033 93.7098C182.033 93.7098 183.709 94.3615 184.985 97.9574C185.866 100.438 190.362 114.593 190.579 116.943C190.916 120.613 189.012 141.216 189.012 141.216L185.299 140.816C185.299 140.816 183.978 118.606 183.927 118.372C183.875 118.143 177.497 101.153 177.497 101.153L182.033 93.7098Z" fill="#B97964"/>
<path d="M187.21 185.041C186.386 182.109 184.413 178.913 183.995 176.54C183.623 174.482 184.11 173.082 183.818 168.337C183.48 162.597 182.559 154.977 180.163 149.346C180.163 149.346 184.83 142.04 180.18 134.019L177.074 128.925L160 129.028L173.144 176.403L187.015 216.238L191.803 215.558C191.328 207.034 189.406 193.519 187.216 185.041H187.21Z" fill="#B97964"/>
<path opacity="0.2" d="M183.732 164.992L171.76 168.268L171.32 169.909L171.777 171.487L172.275 173.27C172.275 173.27 174.815 172.384 177.446 171.55C180.077 170.715 183.881 169.577 183.881 169.577L183.732 164.992Z" fill="black"/>
<path d="M185.299 228.466C185.746 227.809 186.318 227.203 186.981 226.677C186.981 226.677 188.463 223.984 187.284 218.433L189.961 216.524C190.888 215.889 192.078 215.723 192.947 216.112C193.067 216.169 193.176 216.238 193.267 216.324C193.651 216.792 193.994 217.29 194.291 217.81C195.275 219.594 196.116 221.446 196.808 223.361L196.259 223.618L194.503 220.211C193.954 219.033 193.313 221 193.536 222.429C193.759 223.858 193.651 225.585 190.241 227.18C186.329 229.026 184.613 229.667 185.294 228.472L185.299 228.466Z" fill="black"/>
<path d="M186.638 214.637C186.638 214.637 187.41 218.976 187.519 222.012C187.685 223.527 187.49 225.116 186.947 226.694C186.947 226.694 189.669 225.876 190.196 224.064C190.722 222.252 190.253 217.084 192.958 216.135C192.609 215.895 192.221 215.701 191.797 215.558L191.494 213.968C190.053 214.163 186.638 214.637 186.638 214.637Z" fill="#B97964"/>
<path d="M178.71 102.205L182.914 93.4296C181.021 90.5998 171.64 88.4274 171.64 88.4274L165.462 88.7647C165.462 88.7647 163.089 89.2964 161.052 89.9595C158.335 90.8456 156.871 91.5545 156.225 93.0638C156.225 93.0638 154.926 96.4195 155.773 103.274C156.007 105.166 156.642 116.137 154.915 119.292L154.949 120.161C166.24 128.948 175.793 127.479 175.793 127.479C175.284 125.93 175.335 120.813 175.106 119.292C175.272 117.36 175.204 115.885 176.022 112.495C176.182 111.843 178.441 102.845 178.716 102.211L178.71 102.205Z" fill="#B97964"/>
<path d="M152.747 133.51L150.899 176.678L152.381 218.513L157.586 219.851C159.891 211.584 161.762 195.337 162.299 186.865C162.425 183.961 161.487 180.611 161.813 178.318C162.099 176.306 163.037 175.037 164.267 170.469C165.754 164.947 167.259 157.561 166.658 151.838C166.658 151.838 173.654 145.561 171.583 137.226L152.753 133.504L152.747 133.51Z" fill="#B97964"/>
<path opacity="0.2" d="M150.899 176.678C150.899 176.678 152.93 174.745 156.665 175.311C160.4 175.877 162.168 176.815 162.168 176.815L163.18 173.996L154.623 171.573L150.899 173.413V176.683V176.678Z" fill="black"/>
<path d="M145.826 228.352C146.506 227.946 147.284 227.637 148.108 227.443C148.108 227.443 150.596 225.636 151.877 220.102L155.115 219.508C156.225 219.325 157.374 219.679 157.992 220.4C158.078 220.503 158.147 220.611 158.192 220.726C158.341 221.314 158.438 221.909 158.49 222.504C158.621 224.533 158.598 226.568 158.415 228.598H157.809L157.666 224.767C157.666 223.464 156.253 224.979 155.853 226.368C155.452 227.757 154.617 229.272 150.854 229.272C146.524 229.289 144.699 229.141 145.826 228.34V228.352Z" fill="black"/>
<path d="M152.495 218.119C152.495 218.119 151.763 220.646 150.573 223.447C150.081 224.887 149.235 226.242 148.068 227.443C148.068 227.443 150.882 227.854 152.129 226.442C153.376 225.025 155.144 220.142 157.992 220.434C157.78 220.074 157.506 219.731 157.186 219.416C156.722 218.902 152.489 218.124 152.489 218.124L152.495 218.119Z" fill="#B97964"/>
<path d="M185.511 140.742C185.511 140.742 184.024 141.416 183.561 142.686C183.097 143.955 182.394 144.847 182.113 145.818C181.833 146.785 182.977 146.041 183.498 145.527C184.024 145.007 184.624 144.423 184.95 144.881C185.277 145.338 185.751 150.146 186.272 150.729C186.798 151.312 186.964 150.512 186.964 150.512C186.964 150.512 187.113 151.678 187.587 151.741C187.713 151.758 188.028 151.598 188.045 151.055C188.085 149.837 188.028 147.282 188.028 147.282C188.028 147.431 188.32 150.58 188.423 151.049C188.56 151.661 188.937 151.878 189.286 151.787C189.784 151.655 189.555 147.734 189.664 147.562C189.664 147.562 189.721 149.826 190.31 150.129C190.905 150.432 190.945 149.008 190.745 147.745C190.562 146.584 190.499 144.263 190.201 143.103C189.83 141.674 189.258 140.799 187.891 140.559C186.524 140.325 185.505 140.742 185.505 140.742H185.511Z" fill="#B97964"/>
<path d="M150.808 133.35C148.463 144.972 148.434 165.541 148.8 175.614C148.8 175.614 153.925 171.149 162.133 174.145C170.342 177.141 173.842 177.198 177.978 175.889C182.108 174.58 185.351 168.045 197.271 165.759C209.192 163.472 209.644 166.062 209.644 166.062C209.644 166.062 211.074 163.094 205.113 161.019C199.153 158.95 192.015 151.838 188.566 147.316C185.116 142.794 178.636 129.251 176.925 125.775C175.118 122.111 175.232 118.086 175.232 118.086L155.584 116.205C155.584 116.205 152.69 124.06 150.814 133.35H150.808Z" fill="#263238"/>
<path d="M173.476 88.9019L170.725 91.1086C167.745 93.4982 163.672 92.6521 161.338 89.6337C158.381 90.3826 156.968 90.8513 156.968 90.8513C156.968 90.8513 154.926 96.4138 155.773 103.268C156.007 105.16 156.642 116.131 154.915 119.287L154.949 120.156C166.24 128.942 175.793 127.473 175.793 127.473C175.284 125.924 175.398 120.539 175.169 119.024C175.335 117.091 175.204 115.885 176.022 112.495C176.182 111.843 179.03 103.405 179.305 102.771L182.788 93.0409C180.209 90.4226 173.476 88.9076 173.476 88.9076V88.9019Z" fill="#263238"/>
<path d="M154.709 119.201L175.541 120.956L175.547 116.914L155.819 115.222L154.709 119.201Z" fill="#F83758"/>
<path d="M148.628 96.2537L152.964 104.92L156.682 102.548L159.205 90.4855C159.205 90.4855 156.934 90.4683 155.086 91.8747C153.342 93.201 148.628 96.2537 148.628 96.2537Z" fill="#263238"/>
<path opacity="0.2" d="M155.756 103.131C155.756 103.131 155.458 100.461 155.613 98.0488L155.773 95.6363C155.773 95.6363 154.045 101.342 154.28 104.08L155.761 103.131H155.756Z" fill="black"/>
<path d="M177.68 102.759L179.614 109.585L187.765 104.543C187.765 104.543 184.928 93.1323 182.182 92.7893C179.436 92.4463 177.675 102.759 177.675 102.759H177.68Z" fill="#263238"/>
<path opacity="0.2" d="M178.401 105.298L179.997 99.5695L179.168 107.99L178.401 105.298Z" fill="black"/>
<path d="M213.659 141.828H109.349V229.478H213.659V141.828Z" fill="#F83758"/>
<path opacity="0.2" d="M213.659 141.828H109.349V229.478H213.659V141.828Z" fill="black"/>
<path d="M112.672 137.592L117.134 109.945H137.005L142.005 137.306L112.672 137.592Z" fill="#F83758"/>
<path opacity="0.3" d="M112.672 137.592L117.134 109.945H137.005L142.005 137.306L112.672 137.592Z" fill="white"/>
<path opacity="0.3" d="M134.203 137.237L142.005 137.306L137.005 109.945L134.203 137.237Z" fill="black"/>
<path d="M123.169 111.912C123.169 112.409 122.763 112.815 122.265 112.815C121.767 112.815 121.361 112.409 121.361 111.912C121.361 111.415 121.767 111.009 122.265 111.009C122.763 111.009 123.169 111.415 123.169 111.912Z" fill="#263238"/>
<path d="M131.892 111.912C131.892 112.409 131.486 112.815 130.988 112.815C130.49 112.815 130.084 112.409 130.084 111.912C130.084 111.415 130.49 111.009 130.988 111.009C131.486 111.009 131.892 111.415 131.892 111.912Z" fill="#263238"/>
<path d="M122.419 111.62C122.419 110.117 122.425 108.533 123.232 107.207C124.038 105.881 125.491 105.326 127.007 105.326C128.523 105.326 129.878 105.881 130.45 107.35C131.022 108.819 130.685 110.357 130.696 111.849C130.696 112.124 131.125 112.124 131.125 111.849C131.114 110.477 131.371 109.071 131.022 107.722C130.742 106.653 130.09 105.715 129.055 105.263C126.87 104.32 123.935 105.023 122.763 107.161C122.019 108.522 121.996 110.1 121.996 111.615C121.996 111.889 122.425 111.889 122.425 111.615L122.419 111.62Z" fill="#263238"/>
<path opacity="0.1" d="M137.818 135.82L137.005 109.945L134.203 137.237L137.818 135.82Z" fill="black"/>
<path d="M130.244 123.591H119.708L120.126 121.082H130.662L130.244 123.591Z" fill="white"/>
<path opacity="0.3" d="M213.659 141.085H109.349V146.27H213.659V141.085Z" fill="black"/>
<path d="M217.068 136.7H104.533V142.503H217.068V136.7Z" fill="#F83758"/>
<path d="M169.529 172.659H149V185.727H169.529V172.659Z" fill="#263238"/>
<path opacity="0.3" d="M169.529 172.659H149V185.727H169.529V172.659Z" fill="white"/>
<path d="M170.822 171.184H147.702V176.655H170.822V171.184Z" fill="#263238"/>
<path opacity="0.3" d="M170.822 171.184H147.702V176.655H170.822V171.184Z" fill="white"/>
<path opacity="0.3" d="M169.529 176.701H149V178.05H169.529V176.701Z" fill="black"/>
<path opacity="0.3" d="M162.545 172.916H155.979C155.622 172.916 155.332 173.205 155.332 173.562V174.254C155.332 174.611 155.622 174.9 155.979 174.9H162.545C162.902 174.9 163.192 174.611 163.192 174.254V173.562C163.192 173.205 162.902 172.916 162.545 172.916Z" fill="black"/>
<path d="M175.741 185.653H85.657V229.478H175.741V185.653Z" fill="#263238"/>
<path d="M97.5317 172.933L97.1027 172.91C97.1198 172.602 97.1313 172.27 97.1484 171.933C97.2399 169.726 97.3601 166.976 98.5441 165.13C99.7739 163.215 101.856 162.077 104.739 161.74C107.341 161.437 109.973 162.54 111.448 164.547C113.061 166.736 113.182 169.635 113.164 172.419H112.735C112.747 169.709 112.632 166.891 111.1 164.804C109.71 162.917 107.233 161.883 104.785 162.168C102.039 162.489 100.06 163.563 98.8987 165.364C97.7719 167.113 97.6632 169.8 97.5717 171.956C97.5545 172.293 97.5431 172.624 97.5259 172.933H97.5317Z" fill="#263238"/>
<path d="M116.207 185.653H94.0654L96.3419 171.27H114.406L116.207 185.653Z" fill="#F83758"/>
<path opacity="0.3" d="M96.3419 171.27C96.3419 171.27 99.0646 178.433 105.134 178.461C111.202 178.49 114.406 171.27 114.406 171.27C114.406 171.27 111.431 179.85 105.134 179.725C98.8358 179.593 96.3419 171.27 96.3419 171.27Z" fill="black"/>
<path d="M107.015 175.854H103.412V176.552H107.015V175.854Z" fill="#263238"/>
<path d="M144.298 184.453C143.543 184.001 142.685 183.658 141.764 183.441C141.478 183.481 138.584 183.818 137.263 182.314C135.873 180.731 133.905 175.283 130.725 175.603C130.748 175.569 130.771 175.534 130.794 175.5C130.771 175.523 130.748 175.546 130.725 175.569C130.628 175.683 130.553 175.803 130.502 175.934C130.336 176.592 130.227 177.255 130.17 177.918C130.021 180.188 130.124 183.223 130.324 185.487H130.999L131.091 180.451C131.091 178.999 132.664 180.685 133.116 182.234C133.562 183.784 134.494 185.482 138.693 185.487C143.526 185.51 145.557 185.35 144.31 184.458L144.298 184.453Z" fill="#F83758"/>
<path opacity="0.1" d="M144.298 184.453C143.543 184.001 142.685 183.658 141.764 183.441C141.478 183.481 138.584 183.818 137.263 182.314C135.873 180.731 133.905 175.283 130.725 175.603C130.748 175.569 130.771 175.534 130.794 175.5C130.771 175.523 130.748 175.546 130.725 175.569C130.628 175.683 130.553 175.803 130.502 175.934C130.336 176.592 130.227 177.255 130.17 177.918C130.021 180.188 130.124 183.223 130.324 185.487H130.999L131.091 180.451C131.091 178.999 132.664 180.685 133.116 182.234C133.562 183.784 134.494 185.482 138.693 185.487C143.526 185.51 145.557 185.35 144.31 184.458L144.298 184.453Z" fill="black"/>
<path d="M136.325 184.453C135.57 184.001 134.712 183.658 133.791 183.441C133.505 183.481 130.61 183.818 129.289 182.314C127.899 180.731 125.932 175.283 122.751 175.603C122.774 175.569 122.797 175.534 122.82 175.5C122.797 175.523 122.774 175.546 122.751 175.569C122.654 175.683 122.58 175.803 122.528 175.934C122.362 176.592 122.254 177.255 122.196 177.918C122.048 180.188 122.151 183.223 122.351 185.487H123.026L123.117 180.451C123.117 178.999 124.69 180.685 125.142 182.234C125.588 183.784 126.521 185.482 130.719 185.487C135.553 185.51 137.583 185.35 136.336 184.458L136.325 184.453Z" fill="#F83758"/>
</svg>
