<svg width="316" height="236" viewBox="0 0 316 236" fill="none" xmlns="http://www.w3.org/2000/svg">
<path d="M316 207.393H0V207.552H316V207.393Z" fill="#EBEBEB"/>
<path d="M284.337 217.585H263.405V217.744H284.337V217.585Z" fill="#EBEBEB"/>
<path d="M209.331 219.308H203.839V219.467H209.331V219.308Z" fill="#EBEBEB"/>
<path d="M262.773 211.707H250.645V211.865H262.773V211.707Z" fill="#EBEBEB"/>
<path d="M60.4508 212.771H33.1547V212.93H60.4508V212.771Z" fill="#EBEBEB"/>
<path d="M70.0825 212.771H66.0819V212.93H70.0825V212.771Z" fill="#EBEBEB"/>
<path d="M142.295 215.444H83.089V215.603H142.295V215.444Z" fill="#EBEBEB"/>
<path d="M149.784 179.141H27.7511C26.7951 179.139 25.8789 178.758 25.2035 178.079C24.5281 177.401 24.1487 176.482 24.1487 175.524V3.58536C24.1571 2.63265 24.5401 1.72172 25.2146 1.05041C25.8891 0.379096 26.8006 0.00163203 27.7511 0H149.784C150.741 0 151.659 0.381079 152.336 1.0594C153.013 1.73773 153.393 2.65773 153.393 3.61703V175.524C153.393 176.483 153.013 177.403 152.336 178.082C151.659 178.76 150.741 179.141 149.784 179.141ZM27.7511 0.126691C26.8371 0.12837 25.961 0.493503 25.3152 1.14195C24.6694 1.79039 24.3067 2.66916 24.3067 3.58536V175.524C24.3067 176.44 24.6694 177.319 25.3152 177.967C25.961 178.616 26.8371 178.981 27.7511 178.983H149.784C150.699 178.981 151.575 178.616 152.222 177.968C152.869 177.32 153.233 176.441 153.235 175.524V3.58536C153.233 2.66857 152.869 1.78982 152.222 1.14156C151.575 0.493297 150.699 0.128366 149.784 0.126691H27.7511Z" fill="#EBEBEB"/>
<path d="M286.492 179.141H164.453C163.496 179.139 162.579 178.758 161.903 178.08C161.226 177.402 160.846 176.483 160.844 175.524V3.58536C160.854 2.63208 161.238 1.72115 161.914 1.05001C162.589 0.378875 163.502 0.00161423 164.453 0H286.492C287.441 0.00329681 288.351 0.381498 289.024 1.05263C289.698 1.72376 290.08 2.63375 290.088 3.58536V175.524C290.088 176.481 289.71 177.399 289.035 178.077C288.361 178.755 287.447 179.138 286.492 179.141ZM164.453 0.126691C163.538 0.128366 162.661 0.493297 162.015 1.14156C161.368 1.78982 161.004 2.66857 161.002 3.58536V175.524C161.004 176.441 161.368 177.32 162.015 177.968C162.661 178.616 163.538 178.981 164.453 178.983H286.492C287.407 178.981 288.283 178.616 288.93 177.968C289.577 177.32 289.941 176.441 289.943 175.524V3.58536C289.941 2.66857 289.577 1.78982 288.93 1.14156C288.283 0.493297 287.407 0.128366 286.492 0.126691H164.453Z" fill="#EBEBEB"/>
<path d="M211.145 205.873C210.685 205.875 210.245 206.059 209.92 206.385C209.595 206.712 209.413 207.154 209.413 207.615H226.831C226.831 207.153 226.648 206.71 226.322 206.383C225.996 206.056 225.554 205.873 225.093 205.873H220.214V176.101H224.006V136.193H220.214V124.157H105.948V136.193H103.332V176.101H105.948V205.873H101.069C100.608 205.873 100.166 206.056 99.8405 206.383C99.5145 206.71 99.3314 207.153 99.3314 207.615H116.749C116.749 207.155 116.568 206.714 116.245 206.388C115.922 206.061 115.483 205.876 115.024 205.873H110.139V176.101H216.03V205.873H211.145ZM110.132 136.193V128.211H216.03V136.193H110.132Z" fill="#E0E0E0"/>
<path d="M270.186 70.7252H241.917V109.341H254.544V207.615H257.553V109.341H270.186V70.7252Z" fill="#F0F0F0"/>
<path d="M114.803 25.2748V57.4734H52.4875V25.2748H56.3301V15.6843H58.3715V25.2748H108.919V15.6843H110.96V25.2748H114.803Z" fill="#F0F0F0"/>
<path d="M208.674 25.2748V57.4734H146.359V25.2748H150.201V15.6843H152.242V25.2748H202.783V15.6843H204.831V25.2748H208.674Z" fill="#F0F0F0"/>
<path d="M156.736 205.873C156.275 205.873 155.833 206.056 155.507 206.383C155.181 206.71 154.998 207.153 154.998 207.615H172.41C172.41 207.154 172.227 206.712 171.903 206.385C171.578 206.059 171.138 205.875 170.678 205.873H165.793V176.101H169.585V136.193H165.793V124.157H51.527V136.193H48.9105V176.101H51.527V205.873H46.648C46.42 205.873 46.1943 205.918 45.9838 206.006C45.7733 206.093 45.5821 206.222 45.4212 206.384C45.2603 206.545 45.1329 206.737 45.0463 206.949C44.9596 207.16 44.9154 207.386 44.9163 207.615H62.3342C62.3342 207.153 62.1511 206.71 61.8251 206.383C61.4992 206.056 61.0571 205.873 60.5962 205.873H55.7172V176.101H161.609V205.873H156.736ZM55.7172 136.193V128.211H161.609V136.193H55.7172Z" fill="#EBEBEB"/>
<path d="M158 236C225.676 236 280.539 232.79 280.539 228.829C280.539 224.869 225.676 221.659 158 221.659C90.3239 221.659 35.4615 224.869 35.4615 228.829C35.4615 232.79 90.3239 236 158 236Z" fill="#F5F5F5"/>
<path d="M258.406 212.296C258.406 212.296 259.297 205.727 263.493 205.005C267.69 204.283 266.42 201.109 267.513 199.88C268.606 198.652 271.457 202.281 269.017 205.797C266.578 209.313 268.568 208.204 267.513 211.498C266.457 214.792 258.02 217.744 258.406 212.296Z" fill="#263238"/>
<path d="M258.576 216.825C258.541 216.835 258.504 216.835 258.469 216.825C258.438 216.811 258.409 216.791 258.386 216.765C258.363 216.74 258.345 216.71 258.333 216.678C258.321 216.645 258.316 216.611 258.317 216.576C258.319 216.542 258.328 216.508 258.342 216.477C258.374 216.414 261.502 209.718 259.847 199.013C259.319 195.932 258.472 192.915 257.319 190.011C255.328 184.576 253.609 179.876 257.369 171.673C258.532 169.139 259.72 166.77 260.864 164.483C265.105 156.045 268.448 149.375 266.015 142.749C266.002 142.717 265.995 142.682 265.996 142.647C265.996 142.612 266.004 142.578 266.018 142.546C266.032 142.514 266.052 142.485 266.078 142.461C266.103 142.437 266.133 142.418 266.166 142.407C266.199 142.395 266.234 142.389 266.269 142.391C266.304 142.393 266.338 142.402 266.369 142.418C266.4 142.433 266.428 142.455 266.451 142.481C266.474 142.508 266.491 142.538 266.502 142.572C269.03 149.407 265.629 156.166 261.332 164.743C260.188 167.023 259 169.38 257.837 171.913C254.171 179.92 255.777 184.304 257.805 189.853C258.973 192.773 259.838 195.807 260.384 198.905C262.065 209.788 258.867 216.61 258.835 216.68C258.812 216.728 258.775 216.767 258.729 216.793C258.682 216.82 258.629 216.831 258.576 216.825Z" fill="#263238"/>
<path d="M261.016 215.254C261.016 215.254 263.727 211.156 259.815 209.053C255.903 206.95 255.119 208.641 252.699 207.153C250.278 205.664 248.445 201.971 248.035 204.315C247.624 206.658 250.417 208.001 249.431 209.072C248.445 210.142 255.991 217.098 261.016 215.254Z" fill="#263238"/>
<path d="M267.393 146.056C267.393 146.056 270.035 138.011 264.031 137.821C258.027 137.631 264.644 145.194 267.393 146.056Z" fill="#263238"/>
<path d="M262.179 152.238C262.179 152.238 260.39 144.922 256.124 146.468C251.858 148.013 257.925 152.371 262.179 152.238Z" fill="#263238"/>
<path d="M269.409 152.872C269.409 152.872 268.777 147.038 273.289 146.917C277.802 146.797 275.798 151.928 269.409 152.872Z" fill="#263238"/>
<path d="M266.401 164.781C266.401 164.781 272.468 159.352 274.654 163.393C276.841 167.435 270.072 168.271 266.401 164.781Z" fill="#263238"/>
<path d="M255.657 163.818C255.657 163.818 254.519 154.81 249.615 157.635C244.71 160.461 251.391 164.698 255.657 163.818Z" fill="#263238"/>
<path d="M251.346 176.734C251.346 176.734 254.961 167.631 248.237 168.657C241.512 169.684 246.6 174.504 251.346 176.734Z" fill="#263238"/>
<path d="M261.648 179.958C261.648 179.958 267.336 173.256 271.665 175.378C275.994 177.501 272.48 184.177 261.648 179.958Z" fill="#263238"/>
<path d="M256.51 194.819C256.51 194.819 251.669 184.05 247.365 187.68C243.061 191.31 250.114 196.738 256.51 194.819Z" fill="#263238"/>
<path d="M263.544 194.192C263.544 194.192 262.28 185.837 267.058 186.508C271.836 187.18 270.591 192.292 263.544 194.192Z" fill="#263238"/>
<g opacity="0.2">
<path d="M267.393 146.056C267.393 146.056 270.035 138.011 264.031 137.821C258.027 137.631 264.644 145.194 267.393 146.056Z" fill="white"/>
<path d="M262.179 152.238C262.179 152.238 260.39 144.922 256.124 146.468C251.858 148.013 257.925 152.371 262.179 152.238Z" fill="white"/>
<path d="M269.409 152.872C269.409 152.872 268.777 147.038 273.289 146.917C277.802 146.797 275.798 151.928 269.409 152.872Z" fill="white"/>
<path d="M266.401 164.781C266.401 164.781 272.468 159.352 274.654 163.393C276.841 167.435 270.072 168.271 266.401 164.781Z" fill="white"/>
<path d="M255.657 163.818C255.657 163.818 254.519 154.81 249.615 157.635C244.71 160.461 251.391 164.698 255.657 163.818Z" fill="white"/>
<path d="M251.346 176.734C251.346 176.734 254.961 167.631 248.237 168.658C241.512 169.684 246.6 174.504 251.346 176.734Z" fill="white"/>
<path d="M261.648 179.958C261.648 179.958 267.336 173.256 271.665 175.378C275.994 177.501 272.48 184.177 261.648 179.958Z" fill="white"/>
<path d="M256.51 194.819C256.51 194.819 251.669 184.05 247.365 187.68C243.061 191.31 250.114 196.738 256.51 194.819Z" fill="white"/>
<path d="M263.544 194.192C263.544 194.192 262.28 185.837 267.058 186.508C271.836 187.18 270.591 192.292 263.544 194.192Z" fill="white"/>
</g>
<path d="M264.808 157.053H264.732C264.698 157.043 264.666 157.026 264.639 157.003C264.612 156.98 264.59 156.952 264.574 156.92C264.574 156.875 262.248 152.454 260.51 151.408C260.475 151.394 260.443 151.372 260.417 151.344C260.391 151.316 260.371 151.282 260.359 151.246C260.347 151.209 260.343 151.171 260.348 151.132C260.352 151.094 260.364 151.057 260.384 151.025C260.404 150.992 260.431 150.964 260.463 150.942C260.494 150.921 260.53 150.906 260.568 150.9C260.606 150.894 260.645 150.896 260.682 150.906C260.718 150.916 260.753 150.934 260.782 150.959C262.419 151.947 264.391 155.475 264.909 156.438C268.233 154.474 270.686 150.864 270.711 150.826C270.73 150.797 270.754 150.773 270.783 150.754C270.811 150.736 270.843 150.723 270.877 150.716C270.91 150.71 270.944 150.71 270.978 150.717C271.011 150.724 271.043 150.737 271.071 150.756C271.099 150.775 271.123 150.8 271.142 150.828C271.161 150.857 271.174 150.889 271.18 150.922C271.187 150.956 271.187 150.99 271.18 151.024C271.173 151.057 271.16 151.089 271.141 151.117C271.033 151.275 268.48 155.038 264.934 157.027C264.896 157.048 264.852 157.057 264.808 157.053Z" fill="#263238"/>
<path d="M259.291 168.227H259.24C259.203 168.221 259.169 168.207 259.138 168.186C259.108 168.165 259.082 168.138 259.063 168.106C259.063 168.056 256.168 163.229 252.484 161.056C252.424 161.022 252.381 160.965 252.363 160.898C252.345 160.832 252.355 160.761 252.389 160.701C252.425 160.641 252.482 160.598 252.55 160.58C252.617 160.562 252.689 160.572 252.749 160.606C256.105 162.589 258.715 166.554 259.366 167.574C264.542 163.774 271.001 163.97 271.065 163.964C271.099 163.964 271.133 163.972 271.165 163.986C271.196 164.001 271.225 164.021 271.248 164.046C271.272 164.072 271.29 164.102 271.302 164.134C271.314 164.167 271.319 164.201 271.317 164.236C271.317 164.27 271.309 164.304 271.295 164.335C271.282 164.366 271.262 164.394 271.237 164.418C271.212 164.441 271.183 164.46 271.152 164.472C271.12 164.484 271.086 164.49 271.052 164.489C270.989 164.489 264.511 164.331 259.449 168.163C259.404 168.201 259.348 168.223 259.291 168.227Z" fill="#263238"/>
<path d="M255.783 182.999C255.723 182.998 255.666 182.978 255.619 182.942C252.01 180.034 249.235 172.807 249.122 172.496C249.096 172.427 249.098 172.351 249.128 172.284C249.159 172.217 249.214 172.164 249.283 172.138C249.352 172.112 249.428 172.115 249.495 172.145C249.562 172.175 249.614 172.231 249.64 172.3C249.64 172.37 252.402 179.515 255.84 182.435C256.977 181.802 263.645 178.147 268.752 178.045C268.819 178.045 268.884 178.072 268.933 178.119C268.981 178.166 269.009 178.231 269.011 178.299C269.012 178.333 269.007 178.367 268.995 178.4C268.983 178.432 268.965 178.461 268.941 178.486C268.918 178.511 268.889 178.531 268.858 178.544C268.826 178.558 268.792 178.565 268.758 178.565C263.411 178.672 256.017 182.929 255.941 182.999C255.89 183.016 255.834 183.016 255.783 182.999Z" fill="#263238"/>
<path d="M260.062 198.272C260.021 198.272 259.98 198.262 259.944 198.243C259.908 198.225 259.877 198.197 259.853 198.164C257.779 195.652 254.99 193.833 251.858 192.951C251.792 192.931 251.736 192.886 251.703 192.826C251.67 192.765 251.662 192.694 251.681 192.627C251.701 192.561 251.745 192.505 251.806 192.472C251.866 192.439 251.937 192.431 252.004 192.45C255.164 193.334 257.991 195.14 260.125 197.638C262.76 195.896 266.236 189.143 266.268 189.074C266.305 189.021 266.359 188.984 266.421 188.969C266.484 188.953 266.549 188.961 266.606 188.99C266.663 189.02 266.707 189.069 266.731 189.128C266.755 189.188 266.757 189.254 266.735 189.314C266.584 189.612 262.981 196.612 260.194 198.183C260.16 198.225 260.114 198.256 260.062 198.272Z" fill="#263238"/>
<path d="M260.586 214.273C260.586 214.273 262.906 210.567 265.535 210.041C268.164 209.515 269.289 206.481 270.256 208.305C271.223 210.13 268.556 216.167 260.586 214.273Z" fill="#263238"/>
<path d="M272.645 228.829H247.27L245.57 213.139H274.338L272.645 228.829Z" fill="#F83758"/>
<path d="M274.933 216.11H244.976L244.597 212.79H275.318L274.933 216.11Z" fill="#F83758"/>
<path opacity="0.3" d="M274.933 216.11H244.976L244.597 212.79H275.318L274.933 216.11Z" fill="white"/>
<path d="M75.7453 143.433C78.996 150.807 80.9216 158.699 81.4333 166.744C81.4647 167.36 81.2832 167.968 80.9194 168.466C80.5555 168.963 80.0317 169.319 79.4361 169.475C79.2041 169.542 78.9634 169.574 78.722 169.57H66.5054V223.749H74.7214C75.3799 223.757 76.0092 224.023 76.4754 224.489C76.9416 224.955 77.208 225.585 77.2178 226.245H52.1843C52.1943 225.579 52.465 224.945 52.938 224.478C53.411 224.011 54.0484 223.749 54.7123 223.749H62.9283V169.57H50.6865C50.445 169.574 50.2043 169.542 49.9723 169.475C49.3774 169.319 48.8542 168.963 48.4915 168.465C48.1287 167.968 47.9485 167.36 47.9815 166.744C48.4934 158.699 50.419 150.807 53.6695 143.433C55.1126 140.093 55.7907 136.472 55.654 132.834C55.5173 129.197 54.5693 125.637 52.8795 122.415C50.0418 117.005 47.4001 111.393 47.9878 110.208C49.1823 107.801 50.3768 106.636 56.3429 105.939C60.2423 105.477 60.9944 103.19 61.0449 101.676C61.0561 101.3 60.9856 100.926 60.8383 100.581C60.6909 100.235 60.4703 99.9258 60.1917 99.6741C54.7123 94.6762 54.4153 83.2043 63.6614 81.7537V81.5953C63.9711 81.5953 64.2934 81.5953 64.5525 81.627H64.8496C65.1466 81.627 65.4437 81.5953 65.747 81.5953V81.7537C74.9995 83.2297 74.6961 94.6762 69.223 99.6741C68.9458 99.9269 68.7261 100.236 68.5789 100.582C68.4316 100.927 68.3603 101.3 68.3698 101.676C68.4204 103.19 69.1725 105.477 73.0719 105.939C79.0443 106.636 80.2325 107.801 81.4269 110.208C82.0147 111.393 79.3793 117.005 76.5416 122.415C74.8508 125.636 73.9017 129.196 73.7639 132.834C73.6261 136.471 74.3031 140.093 75.7453 143.433Z" fill="#263238"/>
<path opacity="0.4" d="M75.7453 143.433C78.996 150.807 80.9216 158.699 81.4333 166.744C81.4647 167.36 81.2832 167.968 80.9194 168.466C80.5555 168.963 80.0317 169.319 79.4361 169.475C79.2041 169.542 78.9634 169.574 78.722 169.57H66.5054V223.749H74.7214C75.3799 223.757 76.0092 224.023 76.4754 224.489C76.9416 224.955 77.208 225.585 77.2178 226.245H52.1843C52.1943 225.579 52.465 224.945 52.938 224.478C53.411 224.011 54.0484 223.749 54.7123 223.749H62.9283V169.57H50.6865C50.445 169.574 50.2043 169.542 49.9723 169.475C49.3774 169.319 48.8542 168.963 48.4915 168.465C48.1287 167.968 47.9485 167.36 47.9815 166.744C48.4934 158.699 50.419 150.807 53.6695 143.433C55.1126 140.093 55.7907 136.472 55.654 132.834C55.5173 129.197 54.5693 125.637 52.8795 122.415C50.0418 117.005 47.4001 111.393 47.9878 110.208C49.1823 107.801 50.3768 106.636 56.3429 105.939C60.2423 105.477 60.9944 103.19 61.0449 101.676C61.0561 101.3 60.9856 100.926 60.8383 100.581C60.6909 100.235 60.4703 99.9258 60.1917 99.6741C54.7123 94.6762 54.4153 83.2043 63.6614 81.7537V81.5953C63.9711 81.5953 64.2934 81.5953 64.5525 81.627H64.8496C65.1466 81.627 65.4437 81.5953 65.747 81.5953V81.7537C74.9995 83.2297 74.6961 94.6762 69.223 99.6741C68.9458 99.9269 68.7261 100.236 68.5789 100.582C68.4316 100.927 68.3603 101.3 68.3698 101.676C68.4204 103.19 69.1725 105.477 73.0719 105.939C79.0443 106.636 80.2325 107.801 81.4269 110.208C82.0147 111.393 79.3793 117.005 76.5416 122.415C74.8508 125.636 73.9017 129.196 73.7639 132.834C73.6261 136.471 74.3031 140.093 75.7453 143.433Z" fill="white"/>
<path d="M75.7453 143.433C78.996 150.807 80.9216 158.699 81.4333 166.744C81.4647 167.36 81.2832 167.968 80.9194 168.466C80.5555 168.963 80.0317 169.319 79.4361 169.475H49.9723C49.3774 169.319 48.8542 168.963 48.4915 168.465C48.1287 167.968 47.9485 167.36 47.9815 166.744C48.4934 158.699 50.419 150.807 53.6695 143.433C55.1126 140.093 55.7907 136.472 55.654 132.834C55.5173 129.197 54.5693 125.637 52.8795 122.415C50.0418 117.005 47.4001 111.393 47.9878 110.208C49.1823 107.801 50.3768 106.636 56.3429 105.939C60.2423 105.477 60.9944 103.19 61.0449 101.676C61.0561 101.3 60.9856 100.926 60.8383 100.581C60.6909 100.235 60.4703 99.9258 60.1917 99.6741C54.7123 94.6762 54.4153 83.2043 63.6614 81.7537V81.5953C63.9711 81.5953 64.2934 81.5953 64.5525 81.627H64.8496C65.1466 81.627 65.4437 81.5953 65.747 81.5953V81.7537C74.9995 83.2297 74.6961 94.6762 69.223 99.6741C68.9458 99.9269 68.7261 100.236 68.5789 100.582C68.4316 100.927 68.3603 101.3 68.3698 101.676C68.4204 103.19 69.1725 105.477 73.0719 105.939C79.0443 106.636 80.2325 107.801 81.4269 110.208C82.0147 111.393 79.3793 117.005 76.5416 122.415C74.8508 125.636 73.9017 129.196 73.7639 132.834C73.6261 136.471 74.3031 140.093 75.7453 143.433Z" fill="#F83758"/>
<path opacity="0.7" d="M75.7453 143.433C78.996 150.807 80.9216 158.699 81.4333 166.744C81.4647 167.36 81.2832 167.968 80.9194 168.466C80.5555 168.963 80.0317 169.319 79.4361 169.475H49.9723C49.3774 169.319 48.8542 168.963 48.4915 168.465C48.1287 167.968 47.9485 167.36 47.9815 166.744C48.4934 158.699 50.419 150.807 53.6695 143.433C55.1126 140.093 55.7907 136.472 55.654 132.834C55.5173 129.197 54.5693 125.637 52.8795 122.415C50.0418 117.005 47.4001 111.393 47.9878 110.208C49.1823 107.801 50.3768 106.636 56.3429 105.939C60.2423 105.477 60.9944 103.19 61.0449 101.676C61.0561 101.3 60.9856 100.926 60.8383 100.581C60.6909 100.235 60.4703 99.9258 60.1917 99.6741C54.7123 94.6762 54.4153 83.2043 63.6614 81.7537V81.5953C63.9711 81.5953 64.2934 81.5953 64.5525 81.627H64.8496C65.1466 81.627 65.4437 81.5953 65.747 81.5953V81.7537C74.9995 83.2297 74.6961 94.6762 69.223 99.6741C68.9458 99.9269 68.7261 100.236 68.5789 100.582C68.4316 100.927 68.3603 101.3 68.3698 101.676C68.4204 103.19 69.1725 105.477 73.0719 105.939C79.0443 106.636 80.2325 107.801 81.4269 110.208C82.0147 111.393 79.3793 117.005 76.5416 122.415C74.8508 125.636 73.9017 129.196 73.7639 132.834C73.6261 136.471 74.3031 140.093 75.7453 143.433Z" fill="white"/>
<path d="M207.878 7.55066H179.614C178.339 7.55066 177.076 7.8025 175.897 8.29179C174.719 8.78108 173.648 9.49824 172.746 10.4023C171.844 11.3064 171.128 12.3797 170.64 13.561C170.152 14.7422 169.901 16.0083 169.901 17.2869V44.8168C169.901 46.0954 170.152 47.3615 170.64 48.5427C171.128 49.724 171.844 50.7973 172.746 51.7014C173.648 52.6054 174.719 53.3226 175.897 53.8119C177.076 54.3012 178.339 54.553 179.614 54.553H181.561L181.738 61.7807L188.096 54.553H207.878C209.153 54.553 210.416 54.3012 211.595 53.8119C212.773 53.3226 213.844 52.6054 214.746 51.7014C215.648 50.7973 216.364 49.724 216.852 48.5427C217.34 47.3615 217.591 46.0954 217.591 44.8168V17.2869C217.591 14.7047 216.568 12.2282 214.746 10.4023C212.925 8.57644 210.454 7.55066 207.878 7.55066Z" fill="#F83758"/>
<path opacity="0.7" d="M204.054 44.2467H183.438L184.968 25.6928L184.203 22.0061H203.289L202.525 25.6928L204.054 44.2467Z" fill="white"/>
<path d="M199.402 23.2287C199.238 19.428 196.767 16.4318 193.746 16.4318C190.725 16.4318 188.248 19.447 188.09 23.2287C188.027 23.2706 187.975 23.327 187.939 23.3931C187.902 23.4593 187.883 23.5333 187.881 23.6088C187.881 23.7365 187.932 23.8589 188.022 23.9492C188.112 24.0395 188.234 24.0902 188.361 24.0902C188.489 24.0902 188.611 24.0395 188.701 23.9492C188.791 23.8589 188.842 23.7365 188.842 23.6088C188.84 23.5387 188.823 23.4699 188.791 23.4074C188.759 23.3449 188.714 23.2904 188.658 23.2477C188.81 19.7701 191.028 17.0019 193.746 17.0019C196.464 17.0019 198.682 19.7701 198.802 23.2477C198.749 23.2918 198.705 23.3469 198.675 23.4091C198.644 23.4714 198.627 23.5395 198.625 23.6088C198.625 23.7365 198.676 23.8589 198.766 23.9492C198.856 24.0395 198.978 24.0902 199.105 24.0902C199.233 24.0902 199.355 24.0395 199.445 23.9492C199.535 23.8589 199.586 23.7365 199.586 23.6088C199.587 23.5355 199.571 23.4629 199.539 23.3969C199.507 23.3309 199.46 23.2733 199.402 23.2287Z" fill="white"/>
<path d="M211.006 33.1296C211.006 34.1595 210.701 35.1662 210.13 36.0225C209.56 36.8787 208.748 37.5461 207.799 37.9402C206.85 38.3344 205.805 38.4375 204.797 38.2366C203.79 38.0356 202.864 37.5397 202.137 36.8115C201.411 36.0833 200.916 35.1555 200.716 34.1454C200.515 33.1354 200.618 32.0884 201.011 31.137C201.405 30.1855 202.07 29.3723 202.925 28.8001C203.779 28.228 204.783 27.9226 205.811 27.9226C207.189 27.9226 208.51 28.4712 209.484 29.4477C210.459 30.4242 211.006 31.7486 211.006 33.1296Z" fill="#263238"/>
<path d="M205.261 35.1883C205.176 35.1881 205.094 35.1539 205.034 35.0933L202.632 32.6861C202.574 32.6269 202.542 32.5473 202.542 32.4644C202.542 32.3815 202.574 32.3019 202.632 32.2427C202.661 32.213 202.696 32.1895 202.735 32.1734C202.773 32.1573 202.815 32.149 202.856 32.149C202.898 32.149 202.939 32.1573 202.978 32.1734C203.016 32.1895 203.051 32.213 203.081 32.2427L205.261 34.4218L208.541 31.1595C208.6 31.1015 208.68 31.069 208.762 31.069C208.845 31.069 208.924 31.1015 208.984 31.1595C209.013 31.189 209.037 31.224 209.053 31.2626C209.069 31.3012 209.077 31.3426 209.077 31.3844C209.077 31.4262 209.069 31.4676 209.053 31.5062C209.037 31.5448 209.013 31.5798 208.984 31.6093L205.482 35.0933C205.424 35.1529 205.344 35.1871 205.261 35.1883Z" fill="white"/>
<path d="M178.97 76.1539L176.359 86.2322L181.03 86.7896L182.149 77.5919L178.97 76.1539Z" fill="#E4897B"/>
<path d="M143.154 222.647L143.9 223.28L144.892 222.539L146.409 225.757L152.666 231.084C152.666 231.084 154.511 230.932 152.211 227.594C152.097 227.432 152.002 227.258 151.926 227.075C150.972 224.971 150.846 220.525 150.846 220.525L147.414 217.598C147.174 217.668 146.94 217.755 146.712 217.858C145.695 218.295 143.698 219.334 143.154 222.647Z" fill="#F83758"/>
<path opacity="0.2" d="M143.154 222.647L143.9 223.28L144.892 222.539L146.409 225.757L152.666 231.084C152.666 231.084 154.511 230.932 152.211 227.594C152.097 227.432 152.002 227.258 151.926 227.075C150.972 224.971 150.846 220.525 150.846 220.525L147.414 217.598C147.174 217.668 146.94 217.755 146.712 217.858C145.695 218.295 143.698 219.334 143.154 222.647Z" fill="black"/>
<path d="M146.712 217.858C147.597 217.737 147.774 221.722 148.646 223.768C149.424 225.586 150.688 227.176 151.939 227.068C150.985 224.965 151.25 219.574 151.25 219.574L148.488 217.224C148.488 217.224 147.148 217.668 146.712 217.858Z" fill="#E4897B"/>
<path opacity="0.2" d="M146.712 217.858C147.597 217.737 147.774 221.722 148.646 223.768C149.424 225.586 150.688 227.176 151.939 227.068C150.985 224.965 151.25 219.574 151.25 219.574L148.488 217.224C148.488 217.224 147.148 217.668 146.712 217.858Z" fill="black"/>
<path d="M142.971 232.294H143.951L144.222 231.084L147.465 232.548H155.681C155.681 232.548 156.982 231.23 153.077 230.185C152.884 230.134 152.697 230.062 152.521 229.969C150.435 228.994 147.465 225.681 147.465 225.681H142.958C142.821 225.884 142.697 226.096 142.585 226.314C142.093 227.328 141.246 229.412 142.971 232.294Z" fill="#F83758"/>
<path d="M142.585 226.333C143.18 225.668 145.891 228.589 147.869 229.583C149.645 230.47 151.629 230.85 152.514 229.957C150.429 228.981 147.148 224.699 147.148 224.699H143.527C143.527 224.699 142.832 225.909 142.585 226.333Z" fill="#E4897B"/>
<path d="M181.15 78.5484L187.969 76.952L184.582 72.3595C184.582 72.3595 178.325 73.6834 178.97 76.1602L181.15 78.5484Z" fill="#E4897B"/>
<path d="M182.49 78.9474C182.49 78.9474 182.231 102.043 177.112 102.043C174.274 102.043 171.057 100.193 168.32 98.0968C166.024 96.3065 163.892 94.3137 161.95 92.1423V92.0663L160.187 81.3419C165.243 81.2152 174.015 92.7821 174.015 92.7821L178.224 78.1302L182.49 78.9474Z" fill="#F83758"/>
<path opacity="0.2" d="M168.321 98.0967C166.024 96.3065 163.892 94.3137 161.95 92.1423V92.0662L163.593 88.3859C166.339 90.9056 168.029 94.3764 168.321 98.0967Z" fill="black"/>
<path d="M139.495 55.744C139.495 55.744 141.094 52.9694 145.676 52.5007C150.258 52.0319 156.331 54.4771 157.261 61.4894C158.19 68.5017 160.174 72.3468 160.174 72.3468C160.174 72.3468 145.417 76.2109 141.271 74.8173C137.125 73.4237 130.71 57.7393 139.495 55.744Z" fill="#263238"/>
<path d="M170.096 178.564C168.03 182.695 165.951 187.141 163.953 191.582C161.331 197.448 158.866 203.32 156.768 208.578C155.27 212.328 153.317 217.06 152.293 219.923C150.076 219.747 147.974 218.858 146.302 217.389C147.073 212.239 149.127 198.86 153.007 187.091C155.042 180.896 157.589 174.783 160.724 169.81C146.068 131.936 148.905 117.474 148.905 117.474L164.453 116.277C164.453 116.277 167.252 130.492 169.603 145.061C170.83 152.701 171.929 160.441 172.435 166.301V166.358C172.794 170.565 171.985 174.79 170.096 178.564Z" fill="#263238"/>
<path opacity="0.2" d="M156.616 158.522C154.442 152.073 152.824 146.486 151.686 141.678C152.558 137.878 153.873 134.584 155.731 132.576C155.731 132.576 158.828 143.021 156.616 158.522Z" fill="black"/>
<path opacity="0.2" d="M156.768 208.578C155.27 212.328 153.317 217.06 152.293 219.923C150.076 219.747 147.974 218.858 146.302 217.389C147.073 212.239 149.127 198.86 153.007 187.091C154.341 193.381 155.87 201.356 156.768 208.578Z" fill="black"/>
<path d="M158.183 114.744C158.183 114.744 153.652 149.907 151.054 166.827C148.324 184.595 147.976 213.113 148.659 224.731C147.667 225.307 144.045 225.998 142.093 225.396C142.093 225.396 132.846 189.454 138.983 168.581C133.396 127.464 141.511 117.392 141.511 117.392L158.183 114.744Z" fill="#263238"/>
<path opacity="0.7" d="M156.673 92.6047C152.116 88.4869 147.062 84.9565 141.631 82.0957C142.124 82.0387 142.636 81.988 143.142 81.9437C146.59 81.5782 150.06 81.4617 153.525 81.5953C154.385 81.6459 155.27 81.7156 156.136 81.7853C158.284 86.7263 156.673 92.6047 156.673 92.6047Z" fill="white"/>
<path d="M141.631 114.744L164.32 113.211C164.32 113.211 164.996 120.033 164.838 119.938C164.68 119.843 140.576 120.787 140.576 120.787L141.631 114.744Z" fill="#263238"/>
<path d="M141.84 115.118L164.269 113.876V116.011L141.631 117.214L141.84 115.118Z" fill="black"/>
<path d="M154.461 116.91C154.299 116.911 154.144 116.849 154.027 116.738C153.909 116.628 153.838 116.476 153.829 116.315L153.728 115.048C153.72 114.963 153.729 114.878 153.755 114.797C153.781 114.716 153.823 114.641 153.878 114.576C153.934 114.512 154.002 114.459 154.078 114.422C154.154 114.384 154.237 114.362 154.322 114.357L156.78 114.161C156.869 114.154 156.958 114.165 157.042 114.195C157.126 114.224 157.202 114.271 157.267 114.332C157.333 114.392 157.386 114.465 157.422 114.547C157.458 114.629 157.476 114.718 157.475 114.807V116.125C157.475 116.293 157.409 116.454 157.29 116.573C157.172 116.692 157.011 116.758 156.843 116.758L154.486 116.885L154.461 116.91ZM156.824 114.611L154.366 114.801C154.338 114.803 154.31 114.811 154.285 114.824C154.26 114.837 154.238 114.855 154.219 114.877C154.201 114.899 154.187 114.924 154.179 114.951C154.17 114.978 154.167 115.007 154.17 115.035L154.265 116.302C154.271 116.358 154.298 116.41 154.34 116.447C154.382 116.485 154.436 116.505 154.492 116.505L156.85 116.378C156.906 116.377 156.959 116.353 156.998 116.313C157.037 116.273 157.058 116.219 157.058 116.163V114.845C157.059 114.815 157.053 114.786 157.041 114.759C157.029 114.731 157.011 114.707 156.989 114.687C156.969 114.663 156.944 114.643 156.915 114.63C156.887 114.617 156.856 114.61 156.824 114.611Z" fill="white"/>
<path d="M141.631 114.744C141.157 109.41 139.255 99.6361 135.975 89.3678C134.907 86.0295 136.714 82.2604 136.714 82.2604C136.714 82.2604 141.182 82.1464 141.631 82.0957C142.08 82.045 142.636 81.988 143.142 81.9437C146.59 81.5782 150.06 81.4617 153.525 81.5953C154.385 81.6459 155.27 81.7156 156.136 81.7853C156.414 81.7853 159.555 81.8423 159.826 81.874C159.826 81.874 164.175 86.8529 164.44 90.8881C164.759 93.9937 164.877 97.1169 164.794 100.238C164.794 103.899 164.263 113.876 164.263 113.876C163.568 117.734 155.725 114.206 155.725 114.206C144.406 119.824 141.631 114.744 141.631 114.744Z" fill="#F83758"/>
<path opacity="0.8" d="M141.631 114.744C141.157 109.41 139.255 99.6361 135.975 89.3678C134.907 86.0295 136.714 82.2604 136.714 82.2604C136.714 82.2604 141.182 82.1464 141.631 82.0957C142.08 82.045 142.636 81.988 143.142 81.9437C146.59 81.5782 150.06 81.4617 153.525 81.5953C154.385 81.6459 155.27 81.7156 156.136 81.7853C156.414 81.7853 159.555 81.8423 159.826 81.874C159.826 81.874 164.175 86.8529 164.44 90.8881C164.759 93.9937 164.877 97.1169 164.794 100.238C164.794 103.899 164.263 113.876 164.263 113.876C163.568 117.734 155.725 114.206 155.725 114.206C144.406 119.824 141.631 114.744 141.631 114.744Z" fill="white"/>
<path opacity="0.2" d="M154.322 91.6925C154.322 91.7627 154.301 91.8313 154.262 91.8896C154.223 91.9479 154.168 91.9934 154.103 92.0202C154.039 92.0471 153.967 92.0541 153.899 92.0404C153.83 92.0267 153.767 91.9929 153.718 91.9433C153.668 91.8937 153.634 91.8305 153.621 91.7617C153.607 91.6929 153.614 91.6216 153.641 91.5567C153.668 91.4919 153.713 91.4365 153.771 91.3976C153.829 91.3586 153.898 91.3378 153.968 91.3378C154.062 91.3378 154.152 91.3751 154.218 91.4417C154.284 91.5082 154.322 91.5984 154.322 91.6925Z" fill="black"/>
<path opacity="0.2" d="M155.611 99.1863C155.611 99.2564 155.59 99.325 155.551 99.3834C155.512 99.4417 155.457 99.4872 155.392 99.514C155.328 99.5409 155.257 99.5479 155.188 99.5342C155.119 99.5205 155.056 99.4867 155.007 99.4371C154.957 99.3875 154.924 99.3243 154.91 99.2555C154.896 99.1867 154.903 99.1153 154.93 99.0505C154.957 98.9857 155.002 98.9303 155.06 98.8913C155.119 98.8523 155.187 98.8315 155.257 98.8315C155.351 98.8315 155.441 98.8689 155.507 98.9354C155.574 99.002 155.611 99.0922 155.611 99.1863Z" fill="black"/>
<path opacity="0.2" d="M155.611 106.686C155.806 106.686 155.965 106.528 155.965 106.332C155.965 106.136 155.806 105.977 155.611 105.977C155.416 105.977 155.257 106.136 155.257 106.332C155.257 106.528 155.416 106.686 155.611 106.686Z" fill="black"/>
<path opacity="0.2" d="M155.965 113.566C156.16 113.566 156.319 113.407 156.319 113.211C156.319 113.015 156.16 112.856 155.965 112.856C155.769 112.856 155.611 113.015 155.611 113.211C155.611 113.407 155.769 113.566 155.965 113.566Z" fill="black"/>
<path d="M143.464 130.352L135.627 128.933L140.19 112.039C140.19 112.039 139.04 107.846 137.776 103.038C137.144 100.694 136.512 98.2108 135.949 96.0001C135.326 93.8035 134.832 91.572 134.471 89.3171C134.325 86.6249 136.721 82.2668 136.721 82.2668L140.203 81.6967C140.203 81.6967 147.534 87.0557 147.869 97.9891C148.204 108.923 143.464 130.352 143.464 130.352Z" fill="#F83758"/>
<path d="M157.899 81.3419C157.899 81.3419 160.206 89.9506 161.337 96.2851C162.468 102.62 165.584 129.592 165.584 129.592L167.284 128.743L164.952 112.647C164.952 112.647 165.805 93.992 165.142 90.1596C164.478 86.3272 160.199 81.3419 160.199 81.3419H157.899Z" fill="#F83758"/>
<path d="M154.871 83.0649C155.965 87.062 153.607 90.603 153.607 90.603C146.611 88.386 143.717 81.9247 143.717 81.9247C145.809 79.6189 144.488 73.5188 143.47 70.1995L146.27 72.3025L150.441 75.4255C150.363 76.2859 150.431 77.1535 150.643 77.991C150.959 79.3212 151.522 80.5691 152.148 80.8352L154.871 83.0649Z" fill="#E4897B"/>
<path opacity="0.2" d="M150.643 77.9909C148.981 77.6172 146.801 75.8942 146.453 74.1902C146.319 73.566 146.257 72.9282 146.27 72.2898L150.441 75.4127C150.361 76.2774 150.43 77.1494 150.643 77.9909Z" fill="black"/>
<path d="M140.392 63.5734C141.587 68.9451 141.979 71.2445 145.151 73.7087C149.917 77.4524 156.205 75.172 156.628 69.6356C157.008 64.6566 154.985 56.7067 149.36 55.1104C148.163 54.7243 146.884 54.667 145.657 54.9446C144.43 55.2222 143.3 55.8245 142.384 56.6887C141.468 57.553 140.8 58.6475 140.45 59.8584C140.1 61.0693 140.08 62.3522 140.392 63.5734Z" fill="#E4897B"/>
<path d="M147.313 64.2386C147.395 64.6947 147.698 65.0368 147.989 65.0051C148.28 64.9734 148.45 64.5807 148.368 64.1246C148.286 63.6685 147.983 63.3264 147.692 63.3581C147.401 63.3898 147.256 63.7825 147.313 64.2386Z" fill="#263238"/>
<path d="M152.944 63.4467C153.026 63.9028 153.33 64.2449 153.62 64.2196C153.911 64.1942 154.082 63.7888 154.006 63.3327C153.93 62.8766 153.62 62.5346 153.329 62.5662C153.039 62.5979 152.893 62.9907 152.944 63.4467Z" fill="#263238"/>
<path d="M153.228 62.6042L154.246 62.1735C154.246 62.1735 153.848 63.092 153.228 62.6042Z" fill="#263238"/>
<path d="M151.415 64.6123C151.998 65.6115 152.708 66.5313 153.525 67.3488C153.322 67.539 153.078 67.6805 152.812 67.7628C152.546 67.845 152.265 67.8659 151.99 67.8239L151.415 64.6123Z" fill="#DE5753"/>
<path d="M145.992 61.4767C146.027 61.4767 146.062 61.4687 146.094 61.4534C146.125 61.438 146.153 61.4157 146.175 61.388C146.38 61.1324 146.645 60.9318 146.946 60.8046C147.247 60.6774 147.575 60.6276 147.901 60.6595C147.934 60.6649 147.969 60.6633 148.002 60.655C148.035 60.6466 148.066 60.6316 148.093 60.6109C148.12 60.5902 148.143 60.5642 148.16 60.5344C148.177 60.5047 148.187 60.4718 148.191 60.4378C148.195 60.3648 148.173 60.2927 148.127 60.2355C148.082 60.1782 148.017 60.1398 147.945 60.1274C147.534 60.0823 147.119 60.141 146.737 60.2981C146.355 60.4553 146.019 60.7058 145.758 61.0269C145.716 61.084 145.697 61.1551 145.705 61.2258C145.713 61.2965 145.748 61.3613 145.802 61.407C145.856 61.4504 145.923 61.4749 145.992 61.4767Z" fill="#263238"/>
<path d="M154.764 60.1782C154.832 60.1869 154.9 60.1687 154.954 60.1275C154.979 60.1027 154.999 60.0732 155.013 60.0405C155.026 60.0079 155.033 59.9729 155.033 59.9375C155.033 59.9021 155.026 59.867 155.013 59.8344C154.999 59.8018 154.979 59.7722 154.954 59.7475C154.689 59.4037 154.349 59.1258 153.96 58.9357C153.571 58.7456 153.143 58.6484 152.71 58.6516C152.676 58.6538 152.643 58.6631 152.612 58.679C152.582 58.6949 152.555 58.7169 152.534 58.7438C152.512 58.7706 152.497 58.8016 152.488 58.8348C152.479 58.868 152.477 58.9027 152.483 58.9366C152.494 59.0082 152.531 59.0732 152.587 59.1189C152.643 59.1646 152.714 59.1876 152.786 59.1837C153.129 59.1896 153.466 59.273 153.773 59.4277C154.079 59.5823 154.347 59.8042 154.556 60.0768C154.581 60.1081 154.612 60.1334 154.649 60.1509C154.685 60.1684 154.724 60.1778 154.764 60.1782Z" fill="#263238"/>
<path d="M147.572 63.3961L148.583 62.9653C148.583 62.9653 148.185 63.8775 147.572 63.3961Z" fill="#263238"/>
<path d="M143.142 66.6838C143.142 66.6838 145.777 62.8387 143.774 57.1439C143.774 57.1439 149.733 54.2427 154.252 58.6642C154.252 58.6642 150.049 51.2845 141.277 54.8192C132.505 58.3538 139.122 66.7978 140.209 67.4883C141.296 68.1787 143.142 66.6838 143.142 66.6838Z" fill="#263238"/>
<path d="M139.318 68.2167C140.023 69.1514 141.068 69.7685 142.225 69.9333C143.704 70.1107 144.121 68.6094 143.489 67.2285C142.857 65.9616 141.372 64.4033 140.013 64.8657C138.654 65.3281 138.408 67.0384 139.318 68.2167Z" fill="#E4897B"/>
<path d="M152.312 69.0972C152.023 69.7885 151.784 70.4999 151.598 71.2256C151.465 71.2256 151.332 71.2256 151.206 71.1876C149.424 71.0102 148.678 70.3324 148.349 69.642C148.207 69.3018 148.146 68.933 148.172 68.5651C148.18 68.3496 148.218 68.1363 148.286 67.9316C149.177 68.5968 150.814 68.8945 151.705 69.0148C152.065 69.0845 152.312 69.0972 152.312 69.0972Z" fill="#263238"/>
<path d="M151.68 69.0465L151.452 69.6799C149.778 69.5026 148.621 69.1542 148.147 68.5967C148.155 68.3812 148.193 68.1679 148.261 67.9633C149.152 68.6094 150.808 68.9071 151.68 69.0465Z" fill="white"/>
<path d="M151.193 71.1876C149.411 71.0102 148.665 70.3324 148.337 69.642C149.011 69.724 149.666 69.9256 150.271 70.2374C150.67 70.4497 150.992 70.782 151.193 71.1876Z" fill="#DE5753"/>
<path opacity="0.2" d="M138.781 101.733C138.585 102.269 138.222 102.727 137.744 103.038C137.112 100.694 136.48 98.2108 135.918 96.0001C137.365 94.2454 138.585 92.7821 138.585 92.7821C138.585 92.7821 140.253 97.9764 138.781 101.733Z" fill="black"/>
<path d="M136.714 82.2604C133.617 82.6341 124.125 106.268 124.706 109.999C125.288 113.73 145.695 112.039 145.695 112.039V106.338L133.775 103.931L137.902 95.8227C138.633 93.4675 138.937 91.0004 138.8 88.5379C138.537 86.3252 137.827 84.1893 136.714 82.2604Z" fill="#F83758"/>
<path d="M133.687 120.781C133.654 120.789 133.619 120.789 133.586 120.781C133.535 120.753 133.497 120.706 133.481 120.65C133.464 120.594 133.47 120.534 133.497 120.483C133.554 120.369 139.457 109.017 137.22 105.445C136.962 105.069 136.605 104.773 136.188 104.591C135.772 104.408 135.312 104.346 134.862 104.412C126.716 104.697 122.854 116.537 122.817 116.657C122.793 116.705 122.754 116.743 122.705 116.764C122.656 116.785 122.601 116.787 122.551 116.771C122.5 116.755 122.457 116.721 122.429 116.676C122.401 116.63 122.391 116.576 122.399 116.524C122.437 116.397 126.387 104.267 134.843 103.969C135.373 103.903 135.91 103.986 136.395 104.21C136.88 104.434 137.292 104.789 137.586 105.236C139.963 109.036 134.136 120.236 133.883 120.711C133.859 120.738 133.828 120.759 133.794 120.771C133.76 120.783 133.723 120.787 133.687 120.781Z" fill="#F83758"/>
<g opacity="0.6">
<path d="M133.687 120.781C133.654 120.789 133.619 120.789 133.586 120.781C133.535 120.753 133.497 120.706 133.481 120.65C133.464 120.594 133.47 120.534 133.497 120.483C133.554 120.369 139.457 109.017 137.22 105.445C136.962 105.069 136.605 104.773 136.188 104.591C135.772 104.408 135.312 104.346 134.862 104.412C126.716 104.697 122.854 116.537 122.817 116.657C122.793 116.705 122.754 116.743 122.705 116.764C122.656 116.785 122.601 116.787 122.551 116.771C122.5 116.755 122.457 116.721 122.429 116.676C122.401 116.63 122.391 116.576 122.399 116.524C122.437 116.397 126.387 104.267 134.843 103.969C135.373 103.903 135.91 103.986 136.395 104.21C136.88 104.434 137.292 104.789 137.586 105.236C139.963 109.036 134.136 120.236 133.883 120.711C133.859 120.738 133.828 120.759 133.794 120.771C133.76 120.783 133.723 120.787 133.687 120.781Z" fill="white"/>
</g>
<path d="M119.252 113.99L106.46 140.785L108.432 148.843L130.868 156.527L141.505 124.328L138.566 121.332L138.288 119.577L119.252 113.99Z" fill="#263238"/>
<path opacity="0.2" d="M119.252 113.99L106.46 140.785L108.432 148.843L130.868 156.527L141.505 124.328L122.406 119.755L122.589 117.449L119.252 113.99Z" fill="white"/>
<path opacity="0.1" d="M122.406 119.748L122.589 117.449L119.258 113.99L138.282 119.577L138.566 121.332L141.505 124.328L122.406 119.748Z" fill="white"/>
<path opacity="0.2" d="M122.406 119.755L108.432 148.843L130.868 156.527L141.505 124.328L122.406 119.755Z" fill="white"/>
<path opacity="0.1" d="M122.589 117.449L109.753 141.26L106.46 140.785L108.432 148.843L110.113 141.723L122.589 117.449Z" fill="white"/>
<path d="M135.248 103.849C134.709 103.567 134.108 103.426 133.501 103.438C132.894 103.45 132.299 103.615 131.772 103.918C127.032 106.617 125.414 119.843 125.224 121.541C125.126 121.58 125.045 121.652 124.995 121.745C124.945 121.838 124.929 121.946 124.95 122.049C124.971 122.153 125.028 122.246 125.11 122.311C125.193 122.377 125.296 122.412 125.401 122.409C125.52 122.409 125.634 122.361 125.719 122.277C125.803 122.193 125.85 122.078 125.85 121.959C125.849 121.888 125.831 121.819 125.798 121.756C125.765 121.693 125.718 121.639 125.66 121.598C125.837 120.04 127.487 106.864 131.98 104.305C132.446 104.033 132.973 103.885 133.512 103.875C134.051 103.865 134.583 103.993 135.058 104.248C141.732 107.352 137.024 122.035 136.171 124.518C136.083 124.524 136 124.556 135.93 124.609C135.86 124.663 135.808 124.735 135.779 124.818C135.75 124.901 135.746 124.991 135.767 125.076C135.788 125.161 135.834 125.238 135.898 125.298C135.963 125.357 136.043 125.396 136.13 125.411C136.216 125.425 136.305 125.413 136.385 125.378C136.465 125.342 136.533 125.284 136.58 125.21C136.627 125.136 136.652 125.049 136.651 124.962C136.65 124.875 136.621 124.79 136.569 124.721C137.46 122.257 142.408 107.174 135.248 103.849Z" fill="#F83758"/>
<path opacity="0.7" d="M135.248 103.849C134.709 103.567 134.108 103.426 133.501 103.438C132.894 103.45 132.299 103.615 131.772 103.918C127.032 106.617 125.414 119.843 125.224 121.541C125.126 121.58 125.045 121.652 124.995 121.745C124.945 121.838 124.929 121.946 124.95 122.049C124.971 122.153 125.028 122.246 125.11 122.311C125.193 122.377 125.296 122.412 125.401 122.409C125.52 122.409 125.634 122.361 125.719 122.277C125.803 122.193 125.85 122.078 125.85 121.959C125.849 121.888 125.831 121.819 125.798 121.756C125.765 121.693 125.718 121.639 125.66 121.598C125.837 120.04 127.487 106.864 131.98 104.305C132.446 104.033 132.973 103.885 133.512 103.875C134.051 103.865 134.583 103.993 135.058 104.248C141.732 107.352 137.024 122.035 136.171 124.518C136.083 124.524 136 124.556 135.93 124.609C135.86 124.663 135.808 124.735 135.779 124.818C135.75 124.901 135.746 124.991 135.767 125.076C135.788 125.161 135.834 125.238 135.898 125.298C135.963 125.357 136.043 125.396 136.13 125.411C136.216 125.425 136.305 125.413 136.385 125.378C136.465 125.342 136.533 125.284 136.58 125.21C136.627 125.136 136.652 125.049 136.651 124.962C136.65 124.875 136.621 124.79 136.569 124.721C137.46 122.257 142.408 107.174 135.248 103.849Z" fill="white"/>
<path d="M139.925 119.97H139.893C139.837 119.962 139.786 119.932 139.752 119.887C139.718 119.842 139.703 119.785 139.71 119.729C139.71 119.609 141.309 107.358 137.94 104.577C137.562 104.284 137.111 104.099 136.635 104.042C136.16 103.985 135.679 104.058 135.242 104.254C127.538 106.883 128.365 119.007 128.372 119.127C128.375 119.156 128.373 119.184 128.365 119.211C128.357 119.238 128.343 119.264 128.324 119.285C128.306 119.307 128.283 119.324 128.258 119.336C128.232 119.348 128.204 119.355 128.176 119.356C128.12 119.359 128.065 119.34 128.022 119.304C127.98 119.267 127.953 119.215 127.948 119.159C127.948 119.032 127.082 106.585 135.103 103.849C135.609 103.63 136.165 103.551 136.712 103.622C137.259 103.692 137.777 103.908 138.212 104.248C141.764 107.174 140.203 119.273 140.108 119.786C140.103 119.833 140.082 119.877 140.048 119.91C140.015 119.943 139.971 119.965 139.925 119.97Z" fill="#263238"/>
<path d="M124.207 117.652L115.827 150.946L120.042 158.085L143.736 158.934L148.488 121.104L144.81 119.083L144.039 117.487L124.207 117.652Z" fill="#F83758"/>
<path opacity="0.5" d="M124.207 117.651L115.827 150.946L120.042 158.085L143.736 158.934L148.488 121.104L128.89 122.257L128.397 119.995L124.207 117.651Z" fill="white"/>
<path opacity="0.3" d="M128.884 122.257L128.397 119.995L124.207 117.651L144.033 117.48L144.81 119.083L148.488 121.104L128.884 122.257Z" fill="white"/>
<path opacity="0.2" d="M128.89 122.257L120.042 158.085L143.736 158.934L148.488 121.104L128.89 122.257Z" fill="white"/>
<path d="M132.36 123.486C132.31 123.486 132.262 123.47 132.224 123.438C132.186 123.407 132.16 123.363 132.151 123.315C132.037 122.732 129.465 109.049 133.333 104.976C133.758 104.526 134.29 104.191 134.878 104C135.467 103.81 136.094 103.771 136.702 103.887C145.019 105.071 143.925 122.504 143.875 123.245C143.873 123.273 143.866 123.3 143.854 123.326C143.841 123.351 143.824 123.373 143.803 123.392C143.781 123.41 143.757 123.424 143.73 123.432C143.703 123.441 143.675 123.444 143.647 123.441C143.619 123.441 143.591 123.434 143.566 123.422C143.54 123.41 143.517 123.392 143.499 123.371C143.48 123.349 143.467 123.324 143.458 123.297C143.45 123.27 143.448 123.241 143.451 123.213C143.451 123.036 144.57 105.439 136.638 104.311C136.099 104.203 135.541 104.234 135.017 104.402C134.493 104.569 134.02 104.867 133.643 105.267C129.92 109.189 132.543 123.093 132.568 123.232C132.578 123.288 132.565 123.346 132.534 123.393C132.502 123.44 132.453 123.473 132.398 123.486H132.36Z" fill="#263238"/>
<path opacity="0.1" d="M128.397 119.995L119.119 150.439L115.827 150.946L120.042 158.085L119.6 150.781L128.397 119.995Z" fill="white"/>
<path d="M132.827 123.365C132.845 123.421 132.851 123.48 132.846 123.539C132.84 123.598 132.823 123.654 132.795 123.706C132.768 123.758 132.73 123.804 132.685 123.841C132.639 123.878 132.587 123.906 132.53 123.923C132.445 123.949 132.354 123.95 132.269 123.924C132.184 123.899 132.108 123.849 132.051 123.78C131.995 123.711 131.96 123.627 131.951 123.538C131.942 123.449 131.959 123.36 132.001 123.281C132.043 123.203 132.108 123.138 132.186 123.096C132.265 123.054 132.354 123.037 132.442 123.046C132.531 123.055 132.615 123.09 132.683 123.147C132.752 123.204 132.802 123.28 132.827 123.365Z" fill="#263238"/>
<path d="M144.045 123.112C144.072 123.197 144.072 123.288 144.047 123.374C144.021 123.459 143.971 123.535 143.903 123.592C143.834 123.649 143.75 123.684 143.662 123.693C143.573 123.702 143.484 123.684 143.405 123.642C143.327 123.6 143.263 123.536 143.221 123.457C143.179 123.378 143.161 123.289 143.17 123.2C143.179 123.111 143.214 123.027 143.271 122.959C143.328 122.89 143.404 122.84 143.489 122.814C143.545 122.797 143.604 122.791 143.663 122.796C143.721 122.802 143.778 122.819 143.829 122.846C143.881 122.874 143.927 122.912 143.964 122.957C144.001 123.003 144.029 123.056 144.045 123.112Z" fill="#263238"/>
<path d="M177.263 89.5134C177.212 89.5138 177.163 89.4952 177.124 89.4614C177.086 89.4275 177.061 89.3806 177.055 89.3297C177.055 89.203 175.216 76.3755 182.698 72.4291C183.143 72.1416 183.657 71.9825 184.186 71.9691C184.714 71.9557 185.236 72.0885 185.694 72.3531C189.486 74.7412 189.208 87.556 189.189 88.0818C189.187 88.1378 189.164 88.191 189.124 88.23C189.084 88.269 189.03 88.2908 188.974 88.2908C188.946 88.2909 188.918 88.2851 188.891 88.2738C188.865 88.2625 188.842 88.2459 188.822 88.2252C188.803 88.2044 188.787 88.1798 188.778 88.153C188.768 88.1261 188.764 88.0976 188.766 88.0691C188.766 87.9424 189.082 74.9756 185.467 72.7205C185.073 72.494 184.624 72.3823 184.171 72.398C183.718 72.4137 183.278 72.5561 182.901 72.8092C175.683 76.6099 177.459 89.1396 177.478 89.279C177.483 89.307 177.481 89.3355 177.474 89.363C177.468 89.3905 177.455 89.4162 177.438 89.4387C177.421 89.4612 177.399 89.48 177.375 89.4939C177.35 89.5079 177.323 89.5166 177.295 89.5197L177.263 89.5134Z" fill="#263238"/>
<path d="M173.13 88.4365L170.002 122.63L175.266 129.028L198.808 126.19L197.652 88.0755L193.708 86.6502L192.69 85.1932L173.13 88.4365Z" fill="#263238"/>
<path opacity="0.5" d="M173.13 88.4365L170.002 122.63L175.266 129.028L198.808 126.19L197.652 88.0754L178.464 92.2626L177.63 90.1025L173.13 88.4365Z" fill="white"/>
<path opacity="0.3" d="M178.464 92.2626L177.63 90.1025L173.13 88.4365L192.69 85.1932L193.708 86.6502L197.652 88.0754L178.464 92.2626Z" fill="white"/>
<path opacity="0.2" d="M178.464 92.2626L175.266 129.028L198.808 126.19L197.652 88.0754L178.464 92.2626Z" fill="white"/>
<path d="M182.054 92.9404C182.01 92.9416 181.966 92.9287 181.93 92.9037C181.894 92.8787 181.866 92.8427 181.852 92.801C181.662 92.2879 177.326 80.1319 180.398 74.7539C180.741 74.127 181.222 73.5867 181.805 73.174C182.387 72.7613 183.056 72.4871 183.76 72.3721C184.424 72.2422 185.107 72.2605 185.763 72.4259C186.418 72.5912 187.029 72.8995 187.552 73.3286C192.488 77.1864 193.373 90.3559 193.405 90.9133C193.406 90.9691 193.387 91.0235 193.351 91.0658C193.315 91.1081 193.264 91.1351 193.209 91.1414C193.18 91.1431 193.152 91.1392 193.125 91.1299C193.099 91.1207 193.074 91.1062 193.053 91.0874C193.032 91.0686 193.015 91.0457 193.002 91.0202C192.99 90.9947 192.983 90.967 192.981 90.9387C192.981 90.8057 192.077 77.4017 187.293 73.6644C186.813 73.2716 186.253 72.9897 185.652 72.8386C185.052 72.6875 184.425 72.671 183.817 72.7902C183.175 72.8954 182.566 73.1457 182.034 73.5222C181.503 73.8987 181.065 74.3913 180.752 74.9629C177.775 80.1699 182.187 92.5287 182.231 92.6553C182.241 92.6815 182.245 92.7094 182.244 92.7374C182.244 92.7654 182.237 92.793 182.225 92.8184C182.213 92.8438 182.197 92.8666 182.176 92.8854C182.155 92.9041 182.131 92.9186 182.104 92.9277L182.054 92.9404Z" fill="#263238"/>
<path opacity="0.1" d="M177.63 90.1025L173.174 121.623L170.002 122.63L175.266 129.028L173.699 121.883L177.63 90.1025Z" fill="white"/>
<path d="M182.528 92.7441C182.565 92.8232 182.578 92.9115 182.566 92.9981C182.553 93.0846 182.515 93.1654 182.456 93.2304C182.398 93.2954 182.322 93.3416 182.237 93.3632C182.153 93.3848 182.064 93.3809 181.981 93.3519C181.899 93.3229 181.827 93.2702 181.774 93.2004C181.722 93.1305 181.691 93.0467 181.686 92.9594C181.681 92.872 181.702 92.7852 181.746 92.7097C181.79 92.6342 181.855 92.5734 181.934 92.5351C181.986 92.5093 182.044 92.4943 182.102 92.4909C182.161 92.4874 182.219 92.4957 182.274 92.5152C182.33 92.5346 182.38 92.5648 182.424 92.6041C182.468 92.6434 182.503 92.691 182.528 92.7441Z" fill="#263238"/>
<path d="M193.575 90.7487C193.61 90.8283 193.622 90.9164 193.608 91.0023C193.594 91.0883 193.556 91.1683 193.497 91.2328C193.439 91.2973 193.363 91.3434 193.279 91.3656C193.195 91.3878 193.107 91.3851 193.024 91.3578C192.942 91.3305 192.869 91.2799 192.815 91.2119C192.76 91.144 192.727 91.0618 192.718 90.9752C192.71 90.8885 192.726 90.8013 192.766 90.724C192.806 90.6467 192.868 90.5827 192.943 90.5397C192.998 90.5086 193.058 90.4894 193.121 90.4832C193.183 90.4769 193.246 90.4839 193.306 90.5036C193.365 90.5233 193.42 90.5553 193.466 90.5975C193.513 90.6397 193.55 90.6912 193.575 90.7487Z" fill="#263238"/>
<path d="M156.104 102.62L156.237 101.524L156.331 101.422C156.824 100.789 156.73 99.6931 156.597 98.8379C156.464 97.9827 156.015 96.8298 155.206 96.5194C155.325 96.289 155.354 96.0228 155.289 95.772C155.239 95.6058 155.148 95.4552 155.023 95.3349C155.611 94.7014 155.586 93.5359 155.383 92.6934C155.181 91.8509 154.84 90.793 154.119 90.4066C154.076 90.3849 154.032 90.3659 153.987 90.3496L153.45 89.3994L152.767 89.5388L152.716 90.3306C151.516 90.7043 150.302 91.6545 150.612 93.1875C150.609 93.2085 150.609 93.2298 150.612 93.2508C150.947 94.7394 152.596 95.5376 154.1 95.6643C154.285 95.7057 154.477 95.688 154.65 95.6136C154.739 95.6872 154.804 95.7869 154.834 95.8987C154.87 96.0755 154.836 96.2597 154.739 96.4118C154.572 96.4377 154.413 96.4981 154.271 96.5891C152.944 97.2859 151.743 98.6542 151.996 100.162C151.996 100.162 151.996 100.206 151.996 100.225C152.306 101.758 153.734 102.17 155.036 102.043L155.396 102.765L156.104 102.62ZM154.132 95.2209C152.868 95.1068 151.332 94.4164 151.048 93.1431C150.764 91.8699 151.844 91.0211 152.944 90.7043C153.097 90.6516 153.259 90.6311 153.42 90.6442C153.581 90.6572 153.737 90.7036 153.879 90.7803C154.442 91.1097 154.732 92.0473 154.916 92.7884L154.954 92.9468C155.074 93.5802 155.131 94.5811 154.65 95.0435C154.442 95.2462 154.442 95.2462 154.113 95.2209H154.132ZM155.143 101.587C154.587 101.663 152.723 101.745 152.438 100.079C152.217 98.8126 153.342 97.5456 154.499 96.9629C154.777 96.8235 154.777 96.8235 155.048 96.9629C155.68 97.2036 156.009 98.1538 156.136 98.7809C156.136 98.8316 156.136 98.8886 156.136 98.9329C156.256 99.7121 156.35 100.669 155.952 101.194C155.848 101.313 155.721 101.409 155.579 101.477C155.437 101.544 155.282 101.582 155.124 101.587H155.143Z" fill="#263238"/>
<path d="M155.156 101.809C153.892 101.974 152.47 101.6 152.204 100.117C151.939 98.6352 153.133 97.4253 154.366 96.7792C154.726 96.5891 154.739 96.5765 155.112 96.7222C155.87 97.0199 156.249 98.1664 156.376 98.8696C156.572 100.232 156.591 101.625 155.156 101.809Z" fill="#F83758"/>
<path d="M152.887 90.4953C151.623 90.8437 150.492 91.7622 150.82 93.1938C151.149 94.6254 152.716 95.3222 154.094 95.4363C154.499 95.4743 154.518 95.4806 154.802 95.2019C155.39 94.6318 155.301 93.4282 155.131 92.7377C154.802 91.3948 154.277 90.1026 152.887 90.4953Z" fill="#F83758"/>
<path d="M155.523 102.094C154.625 98.4832 153.506 94.4924 153.197 94.1504C152.683 93.9389 152.149 93.7776 151.604 93.6689L151.693 93.2509C152.289 93.3675 152.872 93.548 153.431 93.7893C153.905 94.0617 155.2 99.047 155.959 101.993L155.523 102.094Z" fill="#263238"/>
<path opacity="0.4" d="M155.156 101.809C153.892 101.974 152.47 101.6 152.204 100.117C151.939 98.6352 153.133 97.4253 154.366 96.7792C154.726 96.5891 154.739 96.5765 155.112 96.7222C155.87 97.0199 156.249 98.1664 156.376 98.8696C156.572 100.232 156.591 101.625 155.156 101.809Z" fill="white"/>
<path opacity="0.4" d="M152.887 90.4953C151.623 90.8437 150.492 91.7622 150.82 93.1938C151.149 94.6254 152.716 95.3222 154.094 95.4363C154.499 95.4743 154.518 95.4806 154.802 95.2019C155.39 94.6318 155.301 93.4282 155.131 92.7377C154.802 91.3948 154.277 90.1026 152.887 90.4953Z" fill="white"/>
<path d="M182.016 90.28C181.972 90.2794 181.93 90.2658 181.894 90.241C181.858 90.2162 181.83 90.1813 181.814 90.1406C181.567 89.5578 175.841 75.6915 183.609 72.1758C184.066 71.9562 184.569 71.8475 185.076 71.8585C185.583 71.8696 186.081 71.9999 186.528 72.2392C190.952 74.4816 193.36 85.9725 193.48 86.4602C193.487 86.4881 193.488 86.517 193.483 86.5453C193.478 86.5735 193.468 86.6005 193.453 86.6247C193.437 86.6489 193.417 86.6697 193.394 86.6861C193.37 86.7025 193.344 86.714 193.316 86.7199C193.259 86.7333 193.199 86.7234 193.149 86.6925C193.1 86.6617 193.064 86.6123 193.051 86.5553C193.051 86.4349 190.561 74.7793 186.345 72.6192C185.958 72.4107 185.527 72.2973 185.087 72.2885C184.648 72.2797 184.212 72.3757 183.817 72.5686C176.442 75.9069 182.193 89.8175 182.25 89.9569C182.262 89.9834 182.269 90.0122 182.27 90.0414C182.271 90.0707 182.266 90.0999 182.255 90.1271C182.245 90.1544 182.229 90.1792 182.208 90.2001C182.188 90.2209 182.163 90.2373 182.136 90.2483C182.1 90.2701 182.058 90.2811 182.016 90.28Z" fill="#263238"/>
<g opacity="0.7">
<path d="M182.016 90.28C181.972 90.2794 181.93 90.2658 181.894 90.241C181.858 90.2162 181.83 90.1813 181.814 90.1406C181.567 89.5578 175.841 75.6915 183.609 72.1758C184.066 71.9562 184.569 71.8475 185.076 71.8585C185.583 71.8696 186.081 71.9999 186.528 72.2392C190.952 74.4816 193.36 85.9725 193.48 86.4602C193.487 86.4881 193.488 86.517 193.483 86.5453C193.478 86.5735 193.468 86.6005 193.453 86.6247C193.437 86.6489 193.417 86.6697 193.394 86.6861C193.37 86.7025 193.344 86.714 193.316 86.7199C193.259 86.7333 193.199 86.7234 193.149 86.6925C193.1 86.6617 193.064 86.6123 193.051 86.5553C193.051 86.4349 190.561 74.7793 186.345 72.6192C185.958 72.4107 185.527 72.2973 185.087 72.2885C184.648 72.2797 184.212 72.3757 183.817 72.5686C176.442 75.9069 182.193 89.8175 182.25 89.9569C182.262 89.9834 182.269 90.0122 182.27 90.0414C182.271 90.0707 182.266 90.0999 182.255 90.1271C182.245 90.1544 182.229 90.1792 182.208 90.2001C182.188 90.2209 182.163 90.2373 182.136 90.2483C182.1 90.2701 182.058 90.2811 182.016 90.28Z" fill="white"/>
</g>
<path d="M177.807 90.0456L183.83 119.14L190.27 124.354L212.763 116.834L201.76 84.7626L197.607 84.1608L196.324 82.9319L177.807 90.0456Z" fill="#F83758"/>
<path opacity="0.2" d="M177.807 90.0456L183.83 119.14L190.27 124.354L212.763 116.834L201.76 84.7626L183.798 92.7188L182.547 90.7741L177.807 90.0456Z" fill="white"/>
<path opacity="0.1" d="M183.792 92.7188L182.547 90.7741L177.807 90.0456L196.318 82.9319L197.607 84.1608L201.753 84.7626L183.792 92.7188Z" fill="white"/>
<path opacity="0.2" d="M183.798 92.7188L190.27 124.354L212.763 116.834L201.76 84.7626L183.798 92.7188Z" fill="white"/>
<path opacity="0.1" d="M182.547 90.774L186.737 117.512L183.83 119.14L190.27 124.353L187.306 117.664L182.547 90.774Z" fill="white"/>
<path d="M198.296 88.2022C198.24 88.137 198.168 88.0869 198.088 88.0565C197.266 85.5227 191.932 70.2121 184.234 71.9161C183.641 72.0179 183.082 72.268 182.611 72.6433C182.139 73.0186 181.769 73.5071 181.536 74.0635C179.374 79.1311 186.244 90.9387 187.129 92.4337C187.087 92.5109 187.068 92.5987 187.075 92.6863C187.082 92.774 187.114 92.8578 187.167 92.9278C187.202 92.9757 187.247 93.016 187.298 93.0462C187.349 93.0764 187.406 93.096 187.465 93.1036C187.524 93.1113 187.584 93.107 187.642 93.0909C187.699 93.0749 187.752 93.0474 187.799 93.0101C187.846 92.9746 187.886 92.9299 187.917 92.8787C187.947 92.8275 187.967 92.7708 187.975 92.7119C187.983 92.653 187.98 92.593 187.965 92.5355C187.95 92.4779 187.923 92.4239 187.887 92.3767C187.844 92.3206 187.789 92.2758 187.725 92.246C187.661 92.2162 187.591 92.2024 187.521 92.2056C186.712 90.8374 179.892 79.0551 181.946 74.2345C182.152 73.7414 182.479 73.3086 182.897 72.9763C183.315 72.644 183.81 72.4231 184.335 72.3341C191.521 70.7505 196.805 85.586 197.658 88.1705C197.572 88.2433 197.518 88.3459 197.505 88.4576C197.492 88.5694 197.522 88.6819 197.588 88.7723C197.662 88.8659 197.769 88.9273 197.887 88.9438C198.004 88.9603 198.124 88.9307 198.22 88.861C198.27 88.8238 198.312 88.7769 198.342 88.723C198.373 88.6692 198.393 88.6096 198.4 88.548C198.407 88.4863 198.402 88.4238 198.384 88.3644C198.366 88.3049 198.336 88.2497 198.296 88.2022Z" fill="#263238"/>
<path opacity="0.8" d="M198.296 88.2022C198.24 88.137 198.168 88.0869 198.088 88.0565C197.266 85.5227 191.932 70.2121 184.234 71.9161C183.641 72.0179 183.082 72.268 182.611 72.6433C182.139 73.0186 181.769 73.5071 181.536 74.0635C179.374 79.1311 186.244 90.9387 187.129 92.4337C187.087 92.5109 187.068 92.5987 187.075 92.6863C187.082 92.774 187.114 92.8578 187.167 92.9278C187.202 92.9757 187.247 93.016 187.298 93.0462C187.349 93.0764 187.406 93.096 187.465 93.1036C187.524 93.1113 187.584 93.107 187.642 93.0909C187.699 93.0749 187.752 93.0474 187.799 93.0101C187.846 92.9746 187.886 92.9299 187.917 92.8787C187.947 92.8275 187.967 92.7708 187.975 92.7119C187.983 92.653 187.98 92.593 187.965 92.5355C187.95 92.4779 187.923 92.4239 187.887 92.3767C187.844 92.3206 187.789 92.2758 187.725 92.246C187.661 92.2162 187.591 92.2024 187.521 92.2056C186.712 90.8374 179.892 79.0551 181.946 74.2345C182.152 73.7414 182.479 73.3086 182.897 72.9763C183.315 72.644 183.81 72.4231 184.335 72.3341C191.521 70.7505 196.805 85.586 197.658 88.1705C197.572 88.2433 197.518 88.3459 197.505 88.4576C197.492 88.5694 197.522 88.6819 197.588 88.7723C197.662 88.8659 197.769 88.9273 197.887 88.9438C198.004 88.9603 198.124 88.9307 198.22 88.861C198.27 88.8238 198.312 88.7769 198.342 88.723C198.373 88.6692 198.393 88.6096 198.4 88.548C198.407 88.4863 198.402 88.4238 198.384 88.3644C198.366 88.3049 198.336 88.2497 198.296 88.2022Z" fill="white"/>
<path d="M190.27 71.6817L185.505 70.1931L182.8 74.4563L187.969 76.9521L190.27 71.6817Z" fill="#E4897B"/>
<path d="M150.043 105.654L145.36 106.991L144.387 110.088C144.835 112.622 149.657 111.526 149.657 111.526L150.643 112.159C150.829 112.276 151.04 112.345 151.258 112.36C151.477 112.376 151.696 112.338 151.896 112.249C152.096 112.16 152.271 112.024 152.407 111.851C152.542 111.679 152.633 111.476 152.672 111.26L153.184 108.333C153.221 108.097 153.194 107.855 153.107 107.632C153.019 107.409 152.873 107.214 152.685 107.067L151.212 105.914C151.051 105.782 150.861 105.69 150.658 105.645C150.455 105.6 150.245 105.603 150.043 105.654Z" fill="#E4897B"/>
<path d="M127.222 100.244C125.585 104.735 124.485 108.656 124.694 109.999C125.262 113.737 145.682 112.039 145.682 112.039V106.338L133.763 103.931L127.222 100.244Z" fill="#F83758"/>
<path d="M123.644 114.205C123.613 114.211 123.581 114.211 123.55 114.205C123.524 114.193 123.5 114.176 123.481 114.155C123.462 114.133 123.447 114.108 123.438 114.081C123.428 114.054 123.424 114.025 123.426 113.997C123.428 113.968 123.436 113.94 123.448 113.914C125.117 110.291 128.827 104.178 134.824 103.963C134.883 103.962 134.939 103.985 134.981 104.025C135.023 104.065 135.049 104.12 135.052 104.178C135.054 104.236 135.033 104.292 134.994 104.334C134.955 104.377 134.901 104.403 134.843 104.406C129.061 104.609 125.458 110.563 123.828 114.098C123.809 114.13 123.782 114.156 123.75 114.175C123.718 114.194 123.681 114.204 123.644 114.205Z" fill="#F83758"/>
<g opacity="0.6">
<path d="M123.644 114.205C123.613 114.211 123.581 114.211 123.55 114.205C123.524 114.193 123.5 114.176 123.481 114.155C123.462 114.133 123.447 114.108 123.438 114.081C123.428 114.054 123.424 114.025 123.426 113.997C123.428 113.968 123.436 113.94 123.448 113.914C125.117 110.291 128.827 104.178 134.824 103.963C134.883 103.962 134.939 103.985 134.981 104.025C135.023 104.065 135.049 104.12 135.052 104.178C135.054 104.236 135.033 104.292 134.994 104.334C134.955 104.377 134.901 104.403 134.843 104.406C129.061 104.609 125.458 110.563 123.828 114.098C123.809 114.13 123.782 114.156 123.75 114.175C123.718 114.194 123.681 114.204 123.644 114.205Z" fill="white"/>
</g>
<path d="M126.267 116.695H126.223C126.166 116.683 126.116 116.649 126.083 116.601C126.05 116.552 126.037 116.493 126.046 116.435C127.019 111.558 128.833 105.413 131.949 103.829C132.462 103.567 133.029 103.43 133.605 103.43C134.18 103.43 134.748 103.567 135.261 103.829C135.291 103.839 135.319 103.854 135.342 103.875C135.366 103.896 135.385 103.922 135.398 103.951C135.411 103.98 135.418 104.011 135.417 104.043C135.417 104.074 135.41 104.106 135.397 104.134C135.384 104.163 135.365 104.189 135.341 104.209C135.317 104.23 135.289 104.245 135.259 104.254C135.228 104.263 135.196 104.266 135.165 104.261C135.134 104.257 135.104 104.246 135.077 104.229C134.626 103.992 134.124 103.869 133.614 103.869C133.105 103.869 132.603 103.992 132.151 104.229C129.193 105.73 127.43 111.748 126.463 116.524C126.453 116.569 126.428 116.611 126.393 116.641C126.358 116.672 126.314 116.691 126.267 116.695Z" fill="#F83758"/>
<g opacity="0.7">
<path d="M126.267 116.695H126.223C126.166 116.683 126.116 116.649 126.083 116.601C126.05 116.552 126.037 116.493 126.046 116.435C127.019 111.558 128.833 105.413 131.949 103.829C132.462 103.567 133.029 103.43 133.605 103.43C134.18 103.43 134.748 103.567 135.261 103.829C135.291 103.839 135.319 103.854 135.342 103.875C135.366 103.896 135.385 103.922 135.398 103.951C135.411 103.98 135.418 104.011 135.417 104.043C135.417 104.074 135.41 104.106 135.397 104.134C135.384 104.163 135.365 104.189 135.341 104.209C135.317 104.23 135.289 104.245 135.259 104.254C135.228 104.263 135.196 104.266 135.165 104.261C135.134 104.257 135.104 104.246 135.077 104.229C134.626 103.992 134.124 103.869 133.614 103.869C133.105 103.869 132.603 103.992 132.151 104.229C129.193 105.73 127.43 111.748 126.463 116.524C126.453 116.569 126.428 116.611 126.393 116.641C126.358 116.672 126.314 116.691 126.267 116.695Z" fill="white"/>
</g>
<path d="M128.239 115.745C128.211 115.742 128.183 115.734 128.158 115.721C128.133 115.708 128.111 115.69 128.092 115.668C128.074 115.647 128.06 115.622 128.052 115.594C128.044 115.567 128.041 115.539 128.043 115.51C128.372 111.944 129.724 105.692 135.122 103.848C135.148 103.839 135.176 103.834 135.205 103.836C135.233 103.837 135.26 103.844 135.286 103.857C135.311 103.869 135.334 103.886 135.352 103.908C135.371 103.929 135.385 103.954 135.393 103.982C135.411 104.035 135.408 104.094 135.383 104.145C135.358 104.196 135.314 104.235 135.261 104.254C130.35 105.926 128.858 111.323 128.467 115.555C128.464 115.582 128.456 115.609 128.444 115.633C128.431 115.658 128.413 115.68 128.392 115.697C128.371 115.715 128.347 115.728 128.32 115.736C128.294 115.745 128.266 115.747 128.239 115.745Z" fill="#263238"/>
<path d="M132.36 123.486C132.31 123.486 132.262 123.47 132.224 123.438C132.186 123.407 132.16 123.363 132.151 123.315C132.037 122.732 129.465 109.049 133.333 104.976C133.758 104.526 134.29 104.191 134.878 104C135.467 103.81 136.094 103.771 136.702 103.887C136.757 103.896 136.807 103.926 136.841 103.971C136.875 104.015 136.89 104.071 136.885 104.127C136.875 104.184 136.845 104.235 136.799 104.269C136.753 104.303 136.695 104.318 136.638 104.311C136.099 104.203 135.541 104.234 135.017 104.402C134.493 104.569 134.02 104.867 133.643 105.267C129.92 109.189 132.543 123.093 132.568 123.232C132.578 123.288 132.565 123.346 132.534 123.393C132.502 123.44 132.453 123.473 132.398 123.486H132.36Z" fill="#263238"/>
</svg>
